G04*
G04 #@! TF.GenerationSoftware,Altium Limited,Altium Designer,21.1.1 (26)*
G04*
G04 Layer_Color=65535*
%FSLAX44Y44*%
%MOMM*%
G71*
G04*
G04 #@! TF.SameCoordinates,4D4020B3-F9C7-4368-8432-2603F3E21EC1*
G04*
G04*
G04 #@! TF.FilePolarity,Positive*
G04*
G01*
G75*
%ADD10C,0.2500*%
%ADD11C,0.2000*%
%ADD12C,0.1000*%
%ADD13C,0.3000*%
%ADD14C,0.1270*%
%ADD15C,0.1524*%
%ADD16C,0.2540*%
D10*
X219450Y410000D02*
G03*
X219450Y410000I-1250J0D01*
G01*
X121950Y452000D02*
G03*
X121950Y452000I-1250J0D01*
G01*
D11*
X267039Y396648D02*
G03*
X228363Y396645I-19339J13352D01*
G01*
X73000Y547600D02*
G03*
X73000Y547600I-1000J0D01*
G01*
X258500Y347750D02*
Y362250D01*
X241500Y347750D02*
Y362250D01*
X228363Y396650D02*
X267036D01*
X1042750Y751500D02*
X1057250D01*
X1042750Y768500D02*
X1057250D01*
X1123750D02*
X1138250D01*
X1123750Y751500D02*
X1138250D01*
X622750Y356500D02*
X637250D01*
X622750Y373500D02*
X637250D01*
X114450Y468000D02*
X115600D01*
X77150D02*
X82950D01*
X114450Y376500D02*
X115600D01*
X77150D02*
X82950D01*
X115600D02*
Y468000D01*
X521550Y447300D02*
X548450D01*
X521550Y342700D02*
Y447300D01*
Y342700D02*
X548450D01*
Y447300D01*
X623750Y276500D02*
X638250D01*
X623750Y293500D02*
X638250D01*
X951550Y801200D02*
X978450D01*
X951550Y595000D02*
Y801200D01*
Y595000D02*
X978450D01*
Y801200D01*
D12*
X1091410Y561090D02*
G03*
X1091410Y736090I0J87500D01*
G01*
D02*
G03*
X1091410Y561090I0J-87500D01*
G01*
Y961090D02*
G03*
X1091410Y786090I0J-87500D01*
G01*
D02*
G03*
X1091410Y961090I0J87500D01*
G01*
X712500Y982500D02*
X797500D01*
Y947501D02*
Y982500D01*
X712500Y947501D02*
X797500D01*
X712500D02*
Y982500D01*
D13*
X422000Y410000D02*
G03*
X422000Y410000I-60000J0D01*
G01*
D14*
X310635Y528135D02*
X889365D01*
X310635Y871865D02*
X889365D01*
Y528135D02*
Y871865D01*
X310635Y528135D02*
Y871865D01*
X185000Y830250D02*
Y865000D01*
X94200Y529600D02*
X195800D01*
X94200D02*
Y535000D01*
X80000D02*
X94200D01*
X80000D02*
Y569750D01*
X46500D02*
X80000D01*
X46500D02*
Y830250D01*
X80000D01*
Y865000D01*
X185000D01*
Y830250D02*
X243500D01*
Y569750D02*
Y830250D01*
X210000Y569750D02*
X243500D01*
X210000Y535000D02*
Y569750D01*
X195800Y535000D02*
X210000D01*
X195800Y529600D02*
Y535000D01*
X806905Y15635D02*
X1185635D01*
X806905Y514365D02*
X1185635D01*
X806905Y15635D02*
Y514365D01*
X1185635Y15635D02*
Y514365D01*
X17500Y304500D02*
X561500D01*
Y25500D02*
Y304500D01*
X17500Y25500D02*
X561500D01*
X17500D02*
Y304500D01*
D15*
X939536Y783200D02*
X937843Y784893D01*
Y788278D01*
X939536Y789971D01*
X941229D01*
X942922Y788278D01*
X944614Y789971D01*
X946307D01*
X948000Y788278D01*
Y784893D01*
X946307Y783200D01*
X944614D01*
X942922Y784893D01*
X941229Y783200D01*
X939536D01*
X942922Y784893D02*
Y788278D01*
X948000Y608000D02*
Y611386D01*
Y609693D01*
X937843D01*
X939536Y608000D01*
D16*
X1158304Y777383D02*
Y792617D01*
X1165922D01*
X1168461Y790078D01*
Y785000D01*
X1165922Y782461D01*
X1158304D01*
X1163382D02*
X1168461Y777383D01*
X1183696Y792617D02*
X1173539D01*
Y785000D01*
X1178618Y787539D01*
X1181157D01*
X1183696Y785000D01*
Y779922D01*
X1181157Y777383D01*
X1176078D01*
X1173539Y779922D01*
X1007304Y777383D02*
Y792617D01*
X1014922D01*
X1017461Y790078D01*
Y785000D01*
X1014922Y782461D01*
X1007304D01*
X1012383D02*
X1017461Y777383D01*
X1030157D02*
Y792617D01*
X1022539Y785000D01*
X1032696D01*
X146096Y456671D02*
Y461749D01*
Y459210D01*
X133400D01*
X130861Y461749D01*
Y464289D01*
X133400Y466828D01*
X130861Y451593D02*
Y446514D01*
Y449053D01*
X146096D01*
X143557Y451593D01*
X177304Y372383D02*
Y387617D01*
X184922D01*
X187461Y385078D01*
Y380000D01*
X184922Y377461D01*
X177304D01*
X182383D02*
X187461Y372383D01*
X192539Y385078D02*
X195078Y387617D01*
X200157D01*
X202696Y385078D01*
Y382539D01*
X200157Y380000D01*
X197617D01*
X200157D01*
X202696Y377461D01*
Y374922D01*
X200157Y372383D01*
X195078D01*
X192539Y374922D01*
X303038Y494295D02*
Y479060D01*
X310655D01*
X313195Y481599D01*
Y484138D01*
X310655Y486678D01*
X303038D01*
X310655D01*
X313195Y489217D01*
Y491756D01*
X310655Y494295D01*
X303038D01*
X318273D02*
Y481599D01*
X320812Y479060D01*
X325891D01*
X328430Y481599D01*
Y494295D01*
X333508D02*
X343665D01*
Y491756D01*
X333508Y481599D01*
Y479060D01*
X343665D01*
X850000Y980078D02*
X847461Y982617D01*
X842383D01*
X839843Y980078D01*
Y977539D01*
X842383Y975000D01*
X847461D01*
X850000Y972461D01*
Y969922D01*
X847461Y967383D01*
X842383D01*
X839843Y969922D01*
X855078Y967383D02*
X860157D01*
X857618D01*
Y982617D01*
X855078Y980078D01*
X228359Y445023D02*
Y455180D01*
X225819Y457719D01*
X220741D01*
X218202Y455180D01*
Y445023D01*
X220741Y442484D01*
X225819D01*
X223280Y447562D02*
X228359Y442484D01*
X225819D02*
X228359Y445023D01*
X233437Y442484D02*
X238515D01*
X235976D01*
Y457719D01*
X233437Y455180D01*
X1027383Y295784D02*
X1042617D01*
Y288166D01*
X1040078Y285627D01*
X1035000D01*
X1032461Y288166D01*
Y295784D01*
X1027383Y280548D02*
X1042617D01*
X1037539Y275470D01*
X1042617Y270392D01*
X1027383D01*
X1040078Y255157D02*
X1042617Y257696D01*
Y262774D01*
X1040078Y265313D01*
X1037539D01*
X1035000Y262774D01*
Y257696D01*
X1032461Y255157D01*
X1029922D01*
X1027383Y257696D01*
Y262774D01*
X1029922Y265313D01*
X1042617Y239922D02*
Y250078D01*
X1035000D01*
X1037539Y245000D01*
Y242461D01*
X1035000Y239922D01*
X1029922D01*
X1027383Y242461D01*
Y247539D01*
X1029922Y250078D01*
X1040078Y234843D02*
X1042617Y232304D01*
Y227226D01*
X1040078Y224687D01*
X1029922D01*
X1027383Y227226D01*
Y232304D01*
X1029922Y234843D01*
X1040078D01*
Y219608D02*
X1042617Y217069D01*
Y211991D01*
X1040078Y209451D01*
X1029922D01*
X1027383Y211991D01*
Y217069D01*
X1029922Y219608D01*
X1040078D01*
Y204373D02*
X1042617Y201834D01*
Y196756D01*
X1040078Y194216D01*
X1037539D01*
X1035000Y196756D01*
Y199295D01*
Y196756D01*
X1032461Y194216D01*
X1029922D01*
X1027383Y196756D01*
Y201834D01*
X1029922Y204373D01*
X341243Y169618D02*
Y156922D01*
X343783Y154382D01*
X348861D01*
X351400Y156922D01*
Y169618D01*
X356478Y154382D02*
X361557D01*
X359018D01*
Y169618D01*
X356478Y167078D01*
X531889Y469912D02*
X529350Y472451D01*
X524271D01*
X521732Y469912D01*
Y467373D01*
X524271Y464833D01*
X529350D01*
X531889Y462294D01*
Y459755D01*
X529350Y457216D01*
X524271D01*
X521732Y459755D01*
X536967Y472451D02*
Y457216D01*
Y464833D01*
X547124D01*
Y472451D01*
Y457216D01*
X552202Y472451D02*
X562359D01*
X557281D01*
Y457216D01*
X567437Y469912D02*
X569976Y472451D01*
X575055D01*
X577594Y469912D01*
Y467373D01*
X575055Y464833D01*
X572516D01*
X575055D01*
X577594Y462294D01*
Y459755D01*
X575055Y457216D01*
X569976D01*
X567437Y459755D01*
X582672Y457216D02*
X587751D01*
X585211D01*
Y472451D01*
X582672Y469912D01*
X56401Y887996D02*
X53861Y890535D01*
X48783D01*
X46244Y887996D01*
Y885457D01*
X48783Y882917D01*
X53861D01*
X56401Y880378D01*
Y877839D01*
X53861Y875300D01*
X48783D01*
X46244Y877839D01*
X69097Y875300D02*
X64018D01*
X61479Y877839D01*
Y882917D01*
X64018Y885457D01*
X69097D01*
X71636Y882917D01*
Y880378D01*
X61479D01*
X76714Y875300D02*
Y885457D01*
X84332D01*
X86871Y882917D01*
Y875300D01*
X91949D02*
X99567D01*
X102106Y877839D01*
X99567Y880378D01*
X94488D01*
X91949Y882917D01*
X94488Y885457D01*
X102106D01*
X114802Y875300D02*
X109724D01*
X107184Y877839D01*
Y882917D01*
X109724Y885457D01*
X114802D01*
X117341Y882917D01*
Y880378D01*
X107184D01*
X122419Y875300D02*
Y885457D01*
X127498Y890535D01*
X132576Y885457D01*
Y875300D01*
Y882917D01*
X122419D01*
X137654Y875300D02*
X142733D01*
X140194D01*
Y885457D01*
X137654D01*
X150350D02*
Y875300D01*
Y880378D01*
X152889Y882917D01*
X155429Y885457D01*
X157968D01*
X190977Y887996D02*
X188438Y890535D01*
X183360D01*
X180821Y887996D01*
Y885457D01*
X183360Y882917D01*
X188438D01*
X190977Y880378D01*
Y877839D01*
X188438Y875300D01*
X183360D01*
X180821Y877839D01*
X196056Y887996D02*
X198595Y890535D01*
X203673D01*
X206212Y887996D01*
Y885457D01*
X203673Y882917D01*
X206212Y880378D01*
Y877839D01*
X203673Y875300D01*
X198595D01*
X196056Y877839D01*
Y880378D01*
X198595Y882917D01*
X196056Y885457D01*
Y887996D01*
X198595Y882917D02*
X203673D01*
X624843Y402383D02*
Y417617D01*
X632461D01*
X635000Y415078D01*
Y410000D01*
X632461Y407461D01*
X624843D01*
X629922D02*
X635000Y402383D01*
X640078D02*
X645157D01*
X642618D01*
Y417617D01*
X640078Y415078D01*
X610632Y303038D02*
Y318273D01*
X618250D01*
X620789Y315734D01*
Y310655D01*
X618250Y308116D01*
X610632D01*
X615710D02*
X620789Y303038D01*
X636024D02*
X625867D01*
X636024Y313195D01*
Y315734D01*
X633485Y318273D01*
X628406D01*
X625867Y315734D01*
X990721Y967383D02*
Y982617D01*
X995799Y977539D01*
X1000878Y982617D01*
Y967383D01*
X1016113Y969922D02*
Y980078D01*
X1013574Y982617D01*
X1008495D01*
X1005956Y980078D01*
Y969922D01*
X1008495Y967383D01*
X1013574D01*
X1011034Y972461D02*
X1016113Y967383D01*
X1013574D02*
X1016113Y969922D01*
X1021191Y967383D02*
X1026270D01*
X1023730D01*
Y982617D01*
X1021191Y980078D01*
X1033887D02*
X1036426Y982617D01*
X1041505D01*
X1044044Y980078D01*
Y977539D01*
X1041505Y975000D01*
X1038966D01*
X1041505D01*
X1044044Y972461D01*
Y969922D01*
X1041505Y967383D01*
X1036426D01*
X1033887Y969922D01*
X1059279Y982617D02*
X1049122D01*
Y975000D01*
X1054201Y977539D01*
X1056740D01*
X1059279Y975000D01*
Y969922D01*
X1056740Y967383D01*
X1051661D01*
X1049122Y969922D01*
X989687Y552383D02*
Y567617D01*
X994765Y562539D01*
X999843Y567617D01*
Y552383D01*
X1015078Y554922D02*
Y565078D01*
X1012539Y567617D01*
X1007461D01*
X1004922Y565078D01*
Y554922D01*
X1007461Y552383D01*
X1012539D01*
X1010000Y557461D02*
X1015078Y552383D01*
X1012539D02*
X1015078Y554922D01*
X1020157Y567617D02*
X1030313D01*
Y565078D01*
X1020157Y554922D01*
Y552383D01*
X938800Y826273D02*
Y811038D01*
X948957D01*
X964192Y823734D02*
X961653Y826273D01*
X956574D01*
X954035Y823734D01*
Y813577D01*
X956574Y811038D01*
X961653D01*
X964192Y813577D01*
X969270Y826273D02*
Y811038D01*
X976888D01*
X979427Y813577D01*
Y823734D01*
X976888Y826273D01*
X969270D01*
M02*
