G04*
G04 #@! TF.GenerationSoftware,Altium Limited,Altium Designer,21.1.1 (26)*
G04*
G04 Layer_Physical_Order=2*
G04 Layer_Color=16711680*
%FSLAX44Y44*%
%MOMM*%
G71*
G04*
G04 #@! TF.SameCoordinates,318D8A57-BE55-4DA7-855F-93B026641E73*
G04*
G04*
G04 #@! TF.FilePolarity,Positive*
G04*
G01*
G75*
%ADD15C,0.2540*%
%ADD19C,1.5400*%
%ADD20R,1.5400X1.5400*%
%ADD30C,0.6500*%
G04:AMPARAMS|DCode=31|XSize=0.9mm|YSize=2.4mm|CornerRadius=0.45mm|HoleSize=0mm|Usage=FLASHONLY|Rotation=270.000|XOffset=0mm|YOffset=0mm|HoleType=Round|Shape=RoundedRectangle|*
%AMROUNDEDRECTD31*
21,1,0.9000,1.5000,0,0,270.0*
21,1,0.0000,2.4000,0,0,270.0*
1,1,0.9000,-0.7500,0.0000*
1,1,0.9000,-0.7500,0.0000*
1,1,0.9000,0.7500,0.0000*
1,1,0.9000,0.7500,0.0000*
%
%ADD31ROUNDEDRECTD31*%
G04:AMPARAMS|DCode=32|XSize=0.9mm|YSize=1.7mm|CornerRadius=0.45mm|HoleSize=0mm|Usage=FLASHONLY|Rotation=270.000|XOffset=0mm|YOffset=0mm|HoleType=Round|Shape=RoundedRectangle|*
%AMROUNDEDRECTD32*
21,1,0.9000,0.8000,0,0,270.0*
21,1,0.0000,1.7000,0,0,270.0*
1,1,0.9000,-0.4000,0.0000*
1,1,0.9000,-0.4000,0.0000*
1,1,0.9000,0.4000,0.0000*
1,1,0.9000,0.4000,0.0000*
%
%ADD32ROUNDEDRECTD32*%
%ADD37R,1.5600X1.5600*%
%ADD38C,1.5600*%
%ADD39C,1.4000*%
%ADD40C,1.0500*%
%ADD41R,1.0500X1.0500*%
%ADD42C,1.5000*%
%ADD43C,5.0000*%
%ADD44C,1.5240*%
%ADD45R,1.5240X1.5240*%
%ADD46C,2.0000*%
%ADD47C,1.6000*%
%ADD48R,1.6000X1.6000*%
%ADD49C,1.2700*%
G36*
X1195493Y3237D02*
X3237D01*
Y995493D01*
X1195493D01*
Y3237D01*
D02*
G37*
%LPC*%
G36*
X756270Y974455D02*
Y966270D01*
X764455D01*
X764295Y967490D01*
X763333Y969811D01*
X761804Y971804D01*
X759811Y973333D01*
X757490Y974295D01*
X756270Y974455D01*
D02*
G37*
G36*
X753730D02*
X752510Y974295D01*
X750189Y973333D01*
X748196Y971804D01*
X746667Y969811D01*
X745706Y967490D01*
X745545Y966270D01*
X753730D01*
Y974455D01*
D02*
G37*
G36*
X442740Y982740D02*
X422260D01*
Y962260D01*
X442740D01*
Y982740D01*
D02*
G37*
G36*
X367500Y982829D02*
X364827Y982477D01*
X362336Y981445D01*
X360197Y979803D01*
X358556Y977664D01*
X357524Y975173D01*
X357172Y972500D01*
X357524Y969827D01*
X358556Y967336D01*
X360197Y965197D01*
X362336Y963556D01*
X364827Y962524D01*
X367500Y962172D01*
X370173Y962524D01*
X372664Y963556D01*
X374803Y965197D01*
X376445Y967336D01*
X377477Y969827D01*
X377829Y972500D01*
X377477Y975173D01*
X376445Y977664D01*
X374803Y979803D01*
X372664Y981445D01*
X370173Y982477D01*
X367500Y982829D01*
D02*
G37*
G36*
X764455Y963730D02*
X756270D01*
Y955545D01*
X757490Y955706D01*
X759811Y956667D01*
X761804Y958196D01*
X763333Y960189D01*
X764295Y962510D01*
X764455Y963730D01*
D02*
G37*
G36*
X753730D02*
X745545D01*
X745706Y962510D01*
X746667Y960189D01*
X748196Y958196D01*
X750189Y956667D01*
X752510Y955706D01*
X753730Y955545D01*
Y963730D01*
D02*
G37*
G36*
X780000Y974622D02*
X777509Y974295D01*
X775189Y973333D01*
X773196Y971804D01*
X771667Y969811D01*
X770705Y967490D01*
X770377Y965000D01*
X770705Y962510D01*
X771667Y960189D01*
X773196Y958196D01*
X775189Y956667D01*
X777509Y955706D01*
X780000Y955378D01*
X782490Y955706D01*
X784811Y956667D01*
X786804Y958196D01*
X788333Y960189D01*
X789294Y962510D01*
X789622Y965000D01*
X789294Y967490D01*
X788333Y969811D01*
X786804Y971804D01*
X784811Y973333D01*
X782490Y974295D01*
X780000Y974622D01*
D02*
G37*
G36*
X730000D02*
X727509Y974295D01*
X725189Y973333D01*
X723196Y971804D01*
X721667Y969811D01*
X720705Y967490D01*
X720378Y965000D01*
X720705Y962510D01*
X721667Y960189D01*
X723196Y958196D01*
X725189Y956667D01*
X727509Y955706D01*
X730000Y955378D01*
X732490Y955706D01*
X734811Y956667D01*
X736804Y958196D01*
X738333Y960189D01*
X739294Y962510D01*
X739622Y965000D01*
X739294Y967490D01*
X738333Y969811D01*
X736804Y971804D01*
X734811Y973333D01*
X732490Y974295D01*
X730000Y974622D01*
D02*
G37*
G36*
X432500Y937828D02*
X429827Y937477D01*
X427336Y936445D01*
X425197Y934803D01*
X423555Y932664D01*
X423025Y931385D01*
X376975D01*
X376445Y932664D01*
X374803Y934803D01*
X372664Y936445D01*
X370173Y937477D01*
X367500Y937828D01*
X364827Y937477D01*
X362336Y936445D01*
X360197Y934803D01*
X358556Y932664D01*
X357524Y930173D01*
X357172Y927500D01*
X357524Y924827D01*
X358556Y922336D01*
X360197Y920197D01*
X362336Y918555D01*
X364827Y917524D01*
X367500Y917172D01*
X370173Y917524D01*
X372664Y918555D01*
X374803Y920197D01*
X376445Y922336D01*
X376975Y923615D01*
X423025D01*
X423555Y922336D01*
X425197Y920197D01*
X427336Y918555D01*
X429827Y917524D01*
X432500Y917172D01*
X435173Y917524D01*
X437664Y918555D01*
X439803Y920197D01*
X441444Y922336D01*
X442235Y924244D01*
X442997Y924753D01*
X443839Y926013D01*
X444135Y927500D01*
X443839Y928987D01*
X442997Y930247D01*
X442235Y930756D01*
X441444Y932664D01*
X439803Y934803D01*
X437664Y936445D01*
X435173Y937477D01*
X432500Y937828D01*
D02*
G37*
G36*
X950000Y977625D02*
X945678Y977285D01*
X941463Y976273D01*
X937458Y974614D01*
X933762Y972349D01*
X930466Y969534D01*
X927651Y966237D01*
X925386Y962541D01*
X923727Y958537D01*
X922715Y954321D01*
X922375Y950000D01*
X922715Y945678D01*
X923727Y941463D01*
X925386Y937458D01*
X927651Y933762D01*
X930466Y930466D01*
X933762Y927651D01*
X937458Y925386D01*
X941463Y923727D01*
X945678Y922715D01*
X950000Y922375D01*
X954321Y922715D01*
X958537Y923727D01*
X962541Y925386D01*
X966237Y927651D01*
X969534Y930466D01*
X972349Y933762D01*
X974614Y937458D01*
X976273Y941463D01*
X977285Y945678D01*
X977625Y950000D01*
X977285Y954321D01*
X976273Y958537D01*
X974614Y962541D01*
X972349Y966237D01*
X969534Y969534D01*
X966237Y972349D01*
X962541Y974614D01*
X958537Y976273D01*
X954321Y977285D01*
X950000Y977625D01*
D02*
G37*
G36*
X100000D02*
X95679Y977285D01*
X91463Y976273D01*
X87458Y974614D01*
X83762Y972349D01*
X80466Y969534D01*
X77651Y966237D01*
X75386Y962541D01*
X73727Y958537D01*
X72715Y954321D01*
X72375Y950000D01*
X72715Y945678D01*
X73727Y941463D01*
X75386Y937458D01*
X77651Y933762D01*
X80466Y930466D01*
X83762Y927651D01*
X87458Y925386D01*
X91463Y923727D01*
X95679Y922715D01*
X100000Y922375D01*
X104322Y922715D01*
X108537Y923727D01*
X112542Y925386D01*
X116238Y927651D01*
X119534Y930466D01*
X122349Y933762D01*
X124614Y937458D01*
X126273Y941463D01*
X127285Y945678D01*
X127625Y950000D01*
X127285Y954321D01*
X126273Y958537D01*
X124614Y962541D01*
X122349Y966237D01*
X119534Y969534D01*
X116238Y972349D01*
X112542Y974614D01*
X108537Y976273D01*
X104322Y977285D01*
X100000Y977625D01*
D02*
G37*
G36*
X1091410Y931217D02*
X1088789Y930872D01*
X1086347Y929860D01*
X1084249Y928251D01*
X1082640Y926153D01*
X1081628Y923711D01*
X1081283Y921090D01*
X1081628Y918469D01*
X1082640Y916027D01*
X1084249Y913930D01*
X1086347Y912320D01*
X1088789Y911309D01*
X1091410Y910964D01*
X1094031Y911309D01*
X1096473Y912320D01*
X1098570Y913930D01*
X1100180Y916027D01*
X1101191Y918469D01*
X1101536Y921090D01*
X1101191Y923711D01*
X1100180Y926153D01*
X1098570Y928251D01*
X1096473Y929860D01*
X1094031Y930872D01*
X1091410Y931217D01*
D02*
G37*
G36*
X1126270Y917140D02*
Y908450D01*
X1134959D01*
X1134781Y909801D01*
X1133770Y912243D01*
X1132160Y914341D01*
X1130063Y915950D01*
X1127621Y916962D01*
X1126270Y917140D01*
D02*
G37*
G36*
X1059090D02*
Y908450D01*
X1067779D01*
X1067601Y909801D01*
X1066590Y912243D01*
X1064980Y914341D01*
X1062883Y915950D01*
X1060441Y916962D01*
X1059090Y917140D01*
D02*
G37*
G36*
X1123730D02*
X1122379Y916962D01*
X1119937Y915950D01*
X1117839Y914341D01*
X1116230Y912243D01*
X1115218Y909801D01*
X1115040Y908450D01*
X1123730D01*
Y917140D01*
D02*
G37*
G36*
X1056550D02*
X1055199Y916962D01*
X1052757Y915950D01*
X1050659Y914341D01*
X1049050Y912243D01*
X1048038Y909801D01*
X1047860Y908450D01*
X1056550D01*
Y917140D01*
D02*
G37*
G36*
X1134959Y905910D02*
X1126270D01*
Y897221D01*
X1127621Y897399D01*
X1130063Y898410D01*
X1132160Y900019D01*
X1133770Y902117D01*
X1134781Y904559D01*
X1134959Y905910D01*
D02*
G37*
G36*
X1067779D02*
X1059090D01*
Y897221D01*
X1060441Y897399D01*
X1062883Y898410D01*
X1064980Y900019D01*
X1066590Y902117D01*
X1067601Y904559D01*
X1067779Y905910D01*
D02*
G37*
G36*
X1123730D02*
X1115040D01*
X1115218Y904559D01*
X1116230Y902117D01*
X1117839Y900019D01*
X1119937Y898410D01*
X1122379Y897399D01*
X1123730Y897221D01*
Y905910D01*
D02*
G37*
G36*
X1056550D02*
X1047860D01*
X1048038Y904559D01*
X1049050Y902117D01*
X1050659Y900019D01*
X1052757Y898410D01*
X1055199Y897399D01*
X1056550Y897221D01*
Y905910D01*
D02*
G37*
G36*
X95470Y862480D02*
Y853670D01*
X104281D01*
X104099Y855052D01*
X103075Y857524D01*
X101446Y859646D01*
X99324Y861275D01*
X96853Y862298D01*
X95470Y862480D01*
D02*
G37*
G36*
X92930D02*
X91548Y862298D01*
X89076Y861275D01*
X86954Y859646D01*
X85325Y857524D01*
X84302Y855052D01*
X84120Y853670D01*
X92930D01*
Y862480D01*
D02*
G37*
G36*
X1125000Y850127D02*
X1122379Y849782D01*
X1119937Y848770D01*
X1117839Y847161D01*
X1116230Y845063D01*
X1115742Y843885D01*
X1067078D01*
X1066590Y845063D01*
X1064980Y847161D01*
X1062883Y848770D01*
X1060441Y849782D01*
X1057820Y850127D01*
X1055199Y849782D01*
X1052757Y848770D01*
X1050659Y847161D01*
X1049050Y845063D01*
X1048038Y842621D01*
X1047693Y840000D01*
X1048038Y837379D01*
X1049050Y834937D01*
X1050659Y832840D01*
X1052757Y831230D01*
X1055199Y830219D01*
X1057820Y829874D01*
X1060441Y830219D01*
X1062883Y831230D01*
X1064980Y832840D01*
X1066590Y834937D01*
X1067078Y836115D01*
X1086059D01*
X1086336Y834906D01*
X1086328Y834845D01*
X1084249Y833251D01*
X1082640Y831153D01*
X1081628Y828711D01*
X1081283Y826090D01*
X1081628Y823469D01*
X1082640Y821027D01*
X1084249Y818929D01*
X1086347Y817320D01*
X1088789Y816309D01*
X1091410Y815963D01*
X1094031Y816309D01*
X1096473Y817320D01*
X1098570Y818929D01*
X1100180Y821027D01*
X1101191Y823469D01*
X1101536Y826090D01*
X1101191Y828711D01*
X1100180Y831153D01*
X1098570Y833251D01*
X1096492Y834845D01*
X1096484Y834906D01*
X1096761Y836115D01*
X1115742D01*
X1116230Y834937D01*
X1117839Y832840D01*
X1119937Y831230D01*
X1122379Y830219D01*
X1125000Y829874D01*
X1127621Y830219D01*
X1130063Y831230D01*
X1132160Y832840D01*
X1133770Y834937D01*
X1134781Y837379D01*
X1135126Y840000D01*
X1134781Y842621D01*
X1133770Y845063D01*
X1132160Y847161D01*
X1130063Y848770D01*
X1127621Y849782D01*
X1125000Y850127D01*
D02*
G37*
G36*
X104281Y851130D02*
X95470D01*
Y842319D01*
X96853Y842501D01*
X99324Y843525D01*
X101446Y845154D01*
X103075Y847276D01*
X104099Y849748D01*
X104281Y851130D01*
D02*
G37*
G36*
X92930D02*
X84120D01*
X84302Y849748D01*
X85325Y847276D01*
X86954Y845154D01*
X89076Y843525D01*
X91548Y842501D01*
X92930Y842319D01*
Y851130D01*
D02*
G37*
G36*
X170400Y862648D02*
X167748Y862298D01*
X165276Y861275D01*
X163154Y859646D01*
X161525Y857524D01*
X160502Y855052D01*
X160152Y852400D01*
X160502Y849748D01*
X161525Y847276D01*
X163154Y845154D01*
X165276Y843525D01*
X167748Y842501D01*
X170400Y842152D01*
X173053Y842501D01*
X175524Y843525D01*
X177646Y845154D01*
X179275Y847276D01*
X180299Y849748D01*
X180648Y852400D01*
X180299Y855052D01*
X179275Y857524D01*
X177646Y859646D01*
X175524Y861275D01*
X173053Y862298D01*
X170400Y862648D01*
D02*
G37*
G36*
X145000D02*
X142348Y862298D01*
X139876Y861275D01*
X137754Y859646D01*
X136125Y857524D01*
X135102Y855052D01*
X134753Y852400D01*
X135102Y849748D01*
X136125Y847276D01*
X137754Y845154D01*
X139876Y843525D01*
X142348Y842501D01*
X145000Y842152D01*
X147653Y842501D01*
X150124Y843525D01*
X152246Y845154D01*
X153875Y847276D01*
X154899Y849748D01*
X155248Y852400D01*
X154899Y855052D01*
X153875Y857524D01*
X152246Y859646D01*
X150124Y861275D01*
X147653Y862298D01*
X145000Y862648D01*
D02*
G37*
G36*
X119600D02*
X116948Y862298D01*
X114476Y861275D01*
X112354Y859646D01*
X110725Y857524D01*
X109702Y855052D01*
X109353Y852400D01*
X109702Y849748D01*
X110725Y847276D01*
X112354Y845154D01*
X114476Y843525D01*
X116948Y842501D01*
X119600Y842152D01*
X122253Y842501D01*
X124724Y843525D01*
X126846Y845154D01*
X128475Y847276D01*
X129499Y849748D01*
X129848Y852400D01*
X129499Y855052D01*
X128475Y857524D01*
X126846Y859646D01*
X124724Y861275D01*
X122253Y862298D01*
X119600Y862648D01*
D02*
G37*
G36*
X966270Y797464D02*
Y788270D01*
X975464D01*
X975269Y789751D01*
X974207Y792315D01*
X972517Y794517D01*
X970316Y796207D01*
X967752Y797269D01*
X966270Y797464D01*
D02*
G37*
G36*
X963730D02*
X962249Y797269D01*
X959685Y796207D01*
X957483Y794517D01*
X955793Y792315D01*
X954731Y789751D01*
X954536Y788270D01*
X963730D01*
Y797464D01*
D02*
G37*
G36*
X975464Y785730D02*
X966270D01*
Y776536D01*
X967752Y776731D01*
X970316Y777793D01*
X972517Y779483D01*
X974207Y781684D01*
X975269Y784249D01*
X975464Y785730D01*
D02*
G37*
G36*
X963730D02*
X954536D01*
X954731Y784249D01*
X955793Y781684D01*
X957483Y779483D01*
X959685Y777793D01*
X962249Y776731D01*
X963730Y776536D01*
Y785730D01*
D02*
G37*
G36*
X965000Y772231D02*
X962249Y771869D01*
X959685Y770807D01*
X957483Y769117D01*
X955793Y766915D01*
X954731Y764351D01*
X954369Y761600D01*
X954731Y758848D01*
X955793Y756284D01*
X957483Y754083D01*
X959685Y752393D01*
X962249Y751331D01*
X965000Y750969D01*
X967752Y751331D01*
X970316Y752393D01*
X972517Y754083D01*
X974207Y756284D01*
X975269Y758848D01*
X975631Y761600D01*
X975269Y764351D01*
X974207Y766915D01*
X972517Y769117D01*
X970316Y770807D01*
X967752Y771869D01*
X965000Y772231D01*
D02*
G37*
G36*
Y746831D02*
X962249Y746469D01*
X959685Y745407D01*
X957483Y743717D01*
X955793Y741515D01*
X955201Y740085D01*
X787413D01*
X787165Y740683D01*
X785740Y742540D01*
X783883Y743965D01*
X781721Y744861D01*
X779400Y745167D01*
X777079Y744861D01*
X774916Y743965D01*
X773059Y742540D01*
X771634Y740683D01*
X770739Y738521D01*
X770433Y736200D01*
X770739Y733879D01*
X771634Y731717D01*
X773059Y729859D01*
X774916Y728435D01*
X777079Y727539D01*
X779400Y727233D01*
X781721Y727539D01*
X783883Y728435D01*
X785740Y729859D01*
X787165Y731717D01*
X787413Y732315D01*
X955201D01*
X955793Y730884D01*
X957483Y728683D01*
X959685Y726993D01*
X962249Y725931D01*
X965000Y725569D01*
X967752Y725931D01*
X970316Y726993D01*
X972517Y728683D01*
X974207Y730884D01*
X975269Y733448D01*
X975631Y736200D01*
X975269Y738951D01*
X974207Y741515D01*
X972517Y743717D01*
X970316Y745407D01*
X967752Y746469D01*
X965000Y746831D01*
D02*
G37*
G36*
X956964Y722721D02*
X293640D01*
X292153Y722425D01*
X290893Y721583D01*
X277460Y708149D01*
X276861Y708397D01*
X274540Y708703D01*
X272220Y708397D01*
X270057Y707502D01*
X268200Y706077D01*
X266775Y704220D01*
X265879Y702057D01*
X265574Y699736D01*
X265879Y697415D01*
X266775Y695253D01*
X268200Y693396D01*
X270057Y691971D01*
X272220Y691075D01*
X274540Y690770D01*
X276861Y691075D01*
X279024Y691971D01*
X280881Y693396D01*
X282306Y695253D01*
X283201Y697415D01*
X283507Y699736D01*
X283201Y702057D01*
X282953Y702656D01*
X295249Y714951D01*
X300986D01*
X301238Y713681D01*
X299317Y712885D01*
X297460Y711460D01*
X296035Y709603D01*
X295139Y707441D01*
X294833Y705120D01*
X295139Y702799D01*
X296035Y700637D01*
X297460Y698780D01*
X299317Y697355D01*
X301479Y696459D01*
X303800Y696153D01*
X306121Y696459D01*
X308283Y697355D01*
X310140Y698780D01*
X311565Y700637D01*
X311813Y701235D01*
X918271D01*
X955324Y664182D01*
X954731Y662751D01*
X954369Y660000D01*
X954731Y657249D01*
X955793Y654685D01*
X957483Y652483D01*
X957727Y652295D01*
X957319Y651093D01*
X315992D01*
X314505Y650797D01*
X313245Y649955D01*
X300623Y637333D01*
X300025Y637581D01*
X297704Y637887D01*
X295383Y637581D01*
X293221Y636685D01*
X291364Y635260D01*
X289939Y633403D01*
X289043Y631241D01*
X288737Y628920D01*
X289043Y626599D01*
X289939Y624437D01*
X291364Y622580D01*
X293221Y621155D01*
X295383Y620259D01*
X297704Y619953D01*
X300025Y620259D01*
X302187Y621155D01*
X304044Y622580D01*
X305469Y624437D01*
X306365Y626599D01*
X306671Y628920D01*
X306365Y631241D01*
X306117Y631839D01*
X317601Y643323D01*
X957079D01*
X957362Y642490D01*
X957434Y642053D01*
X955793Y639915D01*
X955201Y638485D01*
X796144D01*
X794657Y638189D01*
X793397Y637347D01*
X741743Y585693D01*
X740901Y584433D01*
X740605Y582946D01*
Y254863D01*
X716211Y230469D01*
X714791D01*
X714165Y231739D01*
X715145Y233016D01*
X716169Y235488D01*
X716518Y238140D01*
X716169Y240792D01*
X715145Y243264D01*
X713516Y245386D01*
X711394Y247015D01*
X708922Y248039D01*
X706270Y248388D01*
X703618Y248039D01*
X702379Y247525D01*
X695427Y254477D01*
X694167Y255319D01*
X692680Y255615D01*
X562965D01*
X450057Y368523D01*
X450002Y368560D01*
X449963Y368614D01*
X409515Y406423D01*
X409898Y407348D01*
X410248Y410000D01*
X409898Y412652D01*
X408875Y415124D01*
X407246Y417246D01*
X405124Y418875D01*
X402652Y419898D01*
X400000Y420248D01*
X397348Y419898D01*
X394876Y418875D01*
X392754Y417246D01*
X391125Y415124D01*
X390102Y412652D01*
X389752Y410000D01*
X390102Y407348D01*
X391125Y404876D01*
X392754Y402754D01*
X394876Y401125D01*
X397348Y400101D01*
X400000Y399752D01*
X402652Y400101D01*
X404210Y400747D01*
X436202Y370842D01*
X435736Y369661D01*
X171215D01*
X137129Y403747D01*
X135869Y404589D01*
X134382Y404885D01*
X113907D01*
X113234Y406145D01*
X113310Y406277D01*
X113954Y407241D01*
X114403Y409500D01*
X113954Y411759D01*
X113310Y412723D01*
X112718Y413750D01*
X113310Y414777D01*
X113954Y415741D01*
X114403Y418000D01*
X113954Y420259D01*
X113310Y421223D01*
X112718Y422250D01*
X113310Y423277D01*
X113954Y424241D01*
X114403Y426500D01*
X113954Y428759D01*
X113310Y429723D01*
X112718Y430750D01*
X113310Y431777D01*
X113954Y432741D01*
X114403Y435000D01*
X113954Y437259D01*
X113310Y438223D01*
X112718Y439250D01*
X113310Y440277D01*
X113954Y441241D01*
X114403Y443500D01*
X113954Y445759D01*
X113310Y446723D01*
X112718Y447750D01*
X113310Y448777D01*
X113954Y449741D01*
X114403Y452000D01*
X113954Y454259D01*
X112674Y456174D01*
X110759Y457454D01*
X109226Y457759D01*
X109096Y459080D01*
X109750Y459351D01*
X111221Y460479D01*
X112350Y461950D01*
X113059Y463662D01*
X113301Y465500D01*
X113059Y467338D01*
X112350Y469050D01*
X111221Y470521D01*
X109750Y471649D01*
X108038Y472359D01*
X106200Y472601D01*
X91200D01*
X89362Y472359D01*
X87650Y471649D01*
X87336Y471408D01*
X86197Y471970D01*
Y508703D01*
X115709Y538215D01*
X116948Y537701D01*
X119600Y537352D01*
X122253Y537701D01*
X124724Y538725D01*
X126846Y540354D01*
X128475Y542476D01*
X129499Y544948D01*
X129848Y547600D01*
X129499Y550252D01*
X128475Y552724D01*
X126846Y554846D01*
X124724Y556475D01*
X122253Y557498D01*
X119600Y557848D01*
X116948Y557498D01*
X114476Y556475D01*
X112354Y554846D01*
X110725Y552724D01*
X109702Y550252D01*
X109353Y547600D01*
X109702Y544948D01*
X110215Y543708D01*
X105534Y539027D01*
X104360Y539513D01*
Y557760D01*
X84040D01*
Y537440D01*
X102287D01*
X102773Y536267D01*
X79565Y513059D01*
X78723Y511798D01*
X78427Y510312D01*
Y350028D01*
X78723Y348541D01*
X79565Y347281D01*
X125330Y301516D01*
X125380Y299954D01*
X124625Y299375D01*
X122968Y297215D01*
X121926Y294699D01*
X121571Y292000D01*
X121926Y289301D01*
X122968Y286786D01*
X124625Y284626D01*
X126785Y282968D01*
X129301Y281926D01*
X132000Y281571D01*
X134699Y281926D01*
X137215Y282968D01*
X139375Y284626D01*
X141032Y286786D01*
X142074Y289301D01*
X142429Y292000D01*
X142074Y294699D01*
X141032Y297215D01*
X139934Y298645D01*
X140561Y299915D01*
X148839D01*
X149466Y298645D01*
X148368Y297215D01*
X147326Y294699D01*
X146971Y292000D01*
X147326Y289301D01*
X148368Y286786D01*
X150025Y284626D01*
X152185Y282968D01*
X154701Y281926D01*
X157400Y281571D01*
X160099Y281926D01*
X162615Y282968D01*
X164774Y284626D01*
X166432Y286786D01*
X167474Y289301D01*
X167829Y292000D01*
X167474Y294699D01*
X166432Y297215D01*
X165334Y298645D01*
X165961Y299915D01*
X174239D01*
X174866Y298645D01*
X173768Y297215D01*
X172726Y294699D01*
X172371Y292000D01*
X172726Y289301D01*
X173768Y286786D01*
X175425Y284626D01*
X177585Y282968D01*
X180101Y281926D01*
X182800Y281571D01*
X185499Y281926D01*
X188015Y282968D01*
X190175Y284626D01*
X191832Y286786D01*
X192874Y289301D01*
X193229Y292000D01*
X192874Y294699D01*
X191832Y297215D01*
X190734Y298645D01*
X191361Y299915D01*
X199639D01*
X200266Y298645D01*
X199168Y297215D01*
X198126Y294699D01*
X197771Y292000D01*
X198126Y289301D01*
X199168Y286786D01*
X200825Y284626D01*
X202985Y282968D01*
X205501Y281926D01*
X208200Y281571D01*
X210899Y281926D01*
X213415Y282968D01*
X215574Y284626D01*
X217232Y286786D01*
X218274Y289301D01*
X218629Y292000D01*
X218274Y294699D01*
X217232Y297215D01*
X216134Y298645D01*
X216761Y299915D01*
X225039D01*
X225666Y298645D01*
X224568Y297215D01*
X223526Y294699D01*
X223171Y292000D01*
X223526Y289301D01*
X224568Y286786D01*
X226225Y284626D01*
X228385Y282968D01*
X230901Y281926D01*
X233600Y281571D01*
X236299Y281926D01*
X238815Y282968D01*
X240975Y284626D01*
X242632Y286786D01*
X243674Y289301D01*
X244029Y292000D01*
X243674Y294699D01*
X242632Y297215D01*
X241534Y298645D01*
X242161Y299915D01*
X250439D01*
X251066Y298645D01*
X249968Y297215D01*
X248926Y294699D01*
X248571Y292000D01*
X248926Y289301D01*
X249968Y286786D01*
X251625Y284626D01*
X253785Y282968D01*
X256301Y281926D01*
X259000Y281571D01*
X261699Y281926D01*
X264215Y282968D01*
X266374Y284626D01*
X266709Y285061D01*
X267911Y284653D01*
Y228404D01*
X268207Y226918D01*
X269049Y225657D01*
X452677Y42029D01*
X452126Y40700D01*
X451771Y38000D01*
X452126Y35301D01*
X453168Y32786D01*
X454825Y30626D01*
X456985Y28968D01*
X459501Y27926D01*
X462200Y27571D01*
X464899Y27926D01*
X467415Y28968D01*
X469575Y30626D01*
X471232Y32786D01*
X472274Y35301D01*
X472629Y38000D01*
X472274Y40700D01*
X471232Y43215D01*
X469575Y45375D01*
X467415Y47032D01*
X464899Y48074D01*
X462200Y48429D01*
X459501Y48074D01*
X458171Y47523D01*
X275681Y230013D01*
Y284403D01*
X276883Y284811D01*
X277025Y284626D01*
X279185Y282968D01*
X281701Y281926D01*
X284400Y281571D01*
X287099Y281926D01*
X289615Y282968D01*
X291775Y284626D01*
X292803Y285966D01*
X294073Y285535D01*
Y280432D01*
X294369Y278945D01*
X295211Y277685D01*
X365061Y207835D01*
X366321Y206993D01*
X367808Y206697D01*
X794528D01*
X796015Y206993D01*
X797275Y207835D01*
X1000983Y411543D01*
X1001825Y412803D01*
X1002121Y414290D01*
Y620987D01*
X1054020Y672887D01*
X1055199Y672399D01*
X1057820Y672054D01*
X1060441Y672399D01*
X1062883Y673410D01*
X1064980Y675020D01*
X1066590Y677117D01*
X1067078Y678296D01*
X1115742D01*
X1116230Y677117D01*
X1117839Y675020D01*
X1119937Y673410D01*
X1122379Y672399D01*
X1125000Y672054D01*
X1127621Y672399D01*
X1130063Y673410D01*
X1132160Y675020D01*
X1133770Y677117D01*
X1134781Y679559D01*
X1135126Y682180D01*
X1134781Y684801D01*
X1133770Y687244D01*
X1132160Y689341D01*
X1130063Y690950D01*
X1127621Y691962D01*
X1125000Y692307D01*
X1122379Y691962D01*
X1119937Y690950D01*
X1117839Y689341D01*
X1116230Y687244D01*
X1115742Y686065D01*
X1096762D01*
X1096484Y687272D01*
X1096493Y687335D01*
X1098570Y688929D01*
X1100180Y691027D01*
X1101191Y693469D01*
X1101536Y696090D01*
X1101191Y698711D01*
X1100180Y701153D01*
X1098570Y703250D01*
X1096473Y704860D01*
X1094031Y705871D01*
X1091410Y706216D01*
X1088789Y705871D01*
X1086347Y704860D01*
X1084249Y703250D01*
X1082640Y701153D01*
X1081628Y698711D01*
X1081283Y696090D01*
X1081628Y693469D01*
X1082640Y691027D01*
X1084249Y688929D01*
X1086327Y687335D01*
X1086335Y687272D01*
X1086058Y686065D01*
X1067078D01*
X1066590Y687244D01*
X1064980Y689341D01*
X1062883Y690950D01*
X1060441Y691962D01*
X1057820Y692307D01*
X1055199Y691962D01*
X1052757Y690950D01*
X1050659Y689341D01*
X1049050Y687244D01*
X1048038Y684801D01*
X1047693Y682180D01*
X1048038Y679559D01*
X1048527Y678381D01*
X995489Y625343D01*
X994647Y624083D01*
X994351Y622596D01*
Y415899D01*
X792919Y214467D01*
X369417D01*
X301843Y282041D01*
Y283472D01*
X303113Y284098D01*
X304585Y282968D01*
X307101Y281926D01*
X309800Y281571D01*
X312499Y281926D01*
X313829Y282477D01*
X372469Y223837D01*
X373730Y222995D01*
X375216Y222699D01*
X717820D01*
X719307Y222995D01*
X720567Y223837D01*
X747237Y250507D01*
X748079Y251767D01*
X748375Y253254D01*
Y581337D01*
X797753Y630715D01*
X955201D01*
X955793Y629285D01*
X957483Y627083D01*
X959685Y625393D01*
X962249Y624331D01*
X965000Y623969D01*
X967752Y624331D01*
X970316Y625393D01*
X972517Y627083D01*
X974207Y629285D01*
X975269Y631848D01*
X975631Y634600D01*
X975269Y637351D01*
X974207Y639915D01*
X972517Y642117D01*
X971945Y642556D01*
X972008Y644109D01*
X972535Y644461D01*
X979647Y651573D01*
X980489Y652833D01*
X980785Y654320D01*
Y673500D01*
X980489Y674987D01*
X979647Y676247D01*
X974676Y681218D01*
X975269Y682648D01*
X975631Y685400D01*
X975269Y688151D01*
X974207Y690715D01*
X972517Y692917D01*
X970316Y694607D01*
X967752Y695669D01*
X965000Y696031D01*
X962249Y695669D01*
X959685Y694607D01*
X957483Y692917D01*
X955793Y690715D01*
X954731Y688151D01*
X954369Y685400D01*
X954731Y682648D01*
X955793Y680085D01*
X957483Y677883D01*
X959685Y676193D01*
X962249Y675131D01*
X965000Y674769D01*
X967752Y675131D01*
X969182Y675724D01*
X973015Y671891D01*
Y668736D01*
X971745Y668110D01*
X970316Y669207D01*
X967752Y670269D01*
X965000Y670631D01*
X962249Y670269D01*
X960818Y669676D01*
X922627Y707867D01*
X921367Y708709D01*
X919880Y709005D01*
X311813D01*
X311565Y709603D01*
X310140Y711460D01*
X308283Y712885D01*
X306362Y713681D01*
X306614Y714951D01*
X954168D01*
X954874Y713895D01*
X954731Y713551D01*
X954369Y710800D01*
X954731Y708048D01*
X955793Y705484D01*
X957483Y703283D01*
X959685Y701593D01*
X962249Y700531D01*
X965000Y700169D01*
X967752Y700531D01*
X970316Y701593D01*
X972517Y703283D01*
X974207Y705484D01*
X975269Y708048D01*
X975631Y710800D01*
X975269Y713551D01*
X974207Y716115D01*
X972517Y718317D01*
X970316Y720007D01*
X967752Y721069D01*
X965000Y721431D01*
X962249Y721069D01*
X960818Y720476D01*
X959711Y721583D01*
X958451Y722425D01*
X956964Y722721D01*
D02*
G37*
G36*
X1126270Y624959D02*
Y616270D01*
X1134959D01*
X1134781Y617621D01*
X1133770Y620063D01*
X1132160Y622160D01*
X1130063Y623770D01*
X1127621Y624781D01*
X1126270Y624959D01*
D02*
G37*
G36*
X1059090D02*
Y616270D01*
X1067779D01*
X1067601Y617621D01*
X1066590Y620063D01*
X1064980Y622160D01*
X1062883Y623770D01*
X1060441Y624781D01*
X1059090Y624959D01*
D02*
G37*
G36*
X1123730D02*
X1122379Y624781D01*
X1119937Y623770D01*
X1117839Y622160D01*
X1116230Y620063D01*
X1115218Y617621D01*
X1115040Y616270D01*
X1123730D01*
Y624959D01*
D02*
G37*
G36*
X1056550D02*
X1055199Y624781D01*
X1052757Y623770D01*
X1050659Y622160D01*
X1049050Y620063D01*
X1048038Y617621D01*
X1047860Y616270D01*
X1056550D01*
Y624959D01*
D02*
G37*
G36*
X1134959Y613730D02*
X1126270D01*
Y605040D01*
X1127621Y605218D01*
X1130063Y606230D01*
X1132160Y607839D01*
X1133770Y609936D01*
X1134781Y612379D01*
X1134959Y613730D01*
D02*
G37*
G36*
X1067779D02*
X1059090D01*
Y605040D01*
X1060441Y605218D01*
X1062883Y606230D01*
X1064980Y607839D01*
X1066590Y609936D01*
X1067601Y612379D01*
X1067779Y613730D01*
D02*
G37*
G36*
X1123730D02*
X1115040D01*
X1115218Y612379D01*
X1116230Y609936D01*
X1117839Y607839D01*
X1119937Y606230D01*
X1122379Y605218D01*
X1123730Y605040D01*
Y613730D01*
D02*
G37*
G36*
X1056550D02*
X1047860D01*
X1048038Y612379D01*
X1049050Y609936D01*
X1050659Y607839D01*
X1052757Y606230D01*
X1055199Y605218D01*
X1056550Y605040D01*
Y613730D01*
D02*
G37*
G36*
X975540Y619740D02*
X954460D01*
Y598660D01*
X975540D01*
Y619740D01*
D02*
G37*
G36*
X1091410Y611217D02*
X1088789Y610872D01*
X1086347Y609860D01*
X1084249Y608251D01*
X1082640Y606154D01*
X1081628Y603711D01*
X1081283Y601090D01*
X1081628Y598469D01*
X1082640Y596027D01*
X1084249Y593930D01*
X1086347Y592320D01*
X1088789Y591309D01*
X1091410Y590964D01*
X1094031Y591309D01*
X1096473Y592320D01*
X1098570Y593930D01*
X1100180Y596027D01*
X1101191Y598469D01*
X1101536Y601090D01*
X1101191Y603711D01*
X1100180Y606154D01*
X1098570Y608251D01*
X1096473Y609860D01*
X1094031Y610872D01*
X1091410Y611217D01*
D02*
G37*
G36*
X195800Y557848D02*
X193148Y557498D01*
X190676Y556475D01*
X188554Y554846D01*
X186926Y552724D01*
X185902Y550252D01*
X185553Y547600D01*
X185902Y544948D01*
X186926Y542476D01*
X188554Y540354D01*
X190676Y538725D01*
X193148Y537701D01*
X195800Y537352D01*
X198452Y537701D01*
X200924Y538725D01*
X203046Y540354D01*
X204675Y542476D01*
X205699Y544948D01*
X206048Y547600D01*
X205699Y550252D01*
X204675Y552724D01*
X203046Y554846D01*
X200924Y556475D01*
X198452Y557498D01*
X195800Y557848D01*
D02*
G37*
G36*
X170400D02*
X167748Y557498D01*
X165276Y556475D01*
X163154Y554846D01*
X161525Y552724D01*
X160502Y550252D01*
X160152Y547600D01*
X160502Y544948D01*
X161525Y542476D01*
X163154Y540354D01*
X165276Y538725D01*
X167748Y537701D01*
X170400Y537352D01*
X173053Y537701D01*
X175524Y538725D01*
X177646Y540354D01*
X179275Y542476D01*
X180299Y544948D01*
X180648Y547600D01*
X180299Y550252D01*
X179275Y552724D01*
X177646Y554846D01*
X175524Y556475D01*
X173053Y557498D01*
X170400Y557848D01*
D02*
G37*
G36*
X145000D02*
X142348Y557498D01*
X139876Y556475D01*
X137754Y554846D01*
X136125Y552724D01*
X135102Y550252D01*
X134753Y547600D01*
X135102Y544948D01*
X136125Y542476D01*
X137754Y540354D01*
X139876Y538725D01*
X142348Y537701D01*
X145000Y537352D01*
X147653Y537701D01*
X150124Y538725D01*
X152246Y540354D01*
X153875Y542476D01*
X154899Y544948D01*
X155248Y547600D01*
X154899Y550252D01*
X153875Y552724D01*
X152246Y554846D01*
X150124Y556475D01*
X147653Y557498D01*
X145000Y557848D01*
D02*
G37*
G36*
X1160000Y502648D02*
X1156726Y502217D01*
X1153676Y500953D01*
X1151056Y498943D01*
X1149046Y496324D01*
X1147783Y493273D01*
X1147352Y490000D01*
X1147783Y486726D01*
X1149046Y483676D01*
X1151056Y481056D01*
X1153676Y479046D01*
X1156726Y477783D01*
X1160000Y477352D01*
X1163274Y477783D01*
X1166324Y479046D01*
X1168944Y481056D01*
X1170954Y483676D01*
X1172217Y486726D01*
X1172648Y490000D01*
X1172217Y493273D01*
X1170954Y496324D01*
X1168944Y498943D01*
X1166324Y500953D01*
X1163274Y502217D01*
X1160000Y502648D01*
D02*
G37*
G36*
X830000D02*
X826727Y502217D01*
X823676Y500953D01*
X821057Y498943D01*
X819046Y496324D01*
X817783Y493273D01*
X817352Y490000D01*
X817783Y486726D01*
X819046Y483676D01*
X821057Y481056D01*
X823676Y479046D01*
X826727Y477783D01*
X830000Y477352D01*
X833274Y477783D01*
X836324Y479046D01*
X838944Y481056D01*
X840954Y483676D01*
X842217Y486726D01*
X842648Y490000D01*
X842217Y493273D01*
X840954Y496324D01*
X838944Y498943D01*
X836324Y500953D01*
X833274Y502217D01*
X830000Y502648D01*
D02*
G37*
G36*
X68900Y472601D02*
X60900D01*
X59062Y472359D01*
X57349Y471649D01*
X55879Y470521D01*
X54750Y469050D01*
X54041Y467338D01*
X53799Y465500D01*
X54041Y463662D01*
X54750Y461950D01*
X55879Y460479D01*
X57349Y459351D01*
X59062Y458641D01*
X60900Y458399D01*
X68900D01*
X70738Y458641D01*
X72450Y459351D01*
X73921Y460479D01*
X75049Y461950D01*
X75759Y463662D01*
X76000Y465500D01*
X75759Y467338D01*
X75049Y469050D01*
X73921Y470521D01*
X72450Y471649D01*
X70738Y472359D01*
X68900Y472601D01*
D02*
G37*
G36*
X535000Y443731D02*
X532248Y443369D01*
X529684Y442307D01*
X527483Y440617D01*
X525793Y438416D01*
X524731Y435852D01*
X524369Y433100D01*
X524731Y430349D01*
X525793Y427785D01*
X527483Y425583D01*
X529684Y423894D01*
X532248Y422831D01*
X535000Y422469D01*
X537751Y422831D01*
X540315Y423894D01*
X542517Y425583D01*
X544207Y427785D01*
X545269Y430349D01*
X545631Y433100D01*
X545269Y435852D01*
X544207Y438416D01*
X542517Y440617D01*
X540315Y442307D01*
X537751Y443369D01*
X535000Y443731D01*
D02*
G37*
G36*
X324000Y420248D02*
X321348Y419898D01*
X318876Y418875D01*
X316754Y417246D01*
X315125Y415124D01*
X314612Y413885D01*
X267223D01*
X267205Y413929D01*
X265956Y415556D01*
X264329Y416805D01*
X262434Y417589D01*
X260400Y417857D01*
X258366Y417589D01*
X256471Y416805D01*
X254852Y415562D01*
X254563Y415349D01*
X253537D01*
X253248Y415562D01*
X251629Y416805D01*
X249734Y417589D01*
X247700Y417857D01*
X245666Y417589D01*
X244060Y416924D01*
X242790Y417482D01*
Y417790D01*
X227210D01*
Y402210D01*
X242790D01*
Y402517D01*
X244060Y403076D01*
X245666Y402410D01*
X247700Y402143D01*
X249734Y402410D01*
X251629Y403195D01*
X253248Y404438D01*
X253537Y404651D01*
X254563D01*
X254852Y404438D01*
X256471Y403195D01*
X258366Y402410D01*
X260400Y402143D01*
X262434Y402410D01*
X264329Y403195D01*
X265956Y404444D01*
X267205Y406071D01*
X267223Y406115D01*
X314612D01*
X315125Y404876D01*
X316754Y402754D01*
X318876Y401125D01*
X321348Y400101D01*
X324000Y399752D01*
X326652Y400101D01*
X329124Y401125D01*
X331246Y402754D01*
X332875Y404876D01*
X333899Y407348D01*
X334248Y410000D01*
X333899Y412652D01*
X332875Y415124D01*
X331246Y417246D01*
X329124Y418875D01*
X326652Y419898D01*
X324000Y420248D01*
D02*
G37*
G36*
X706270Y426188D02*
X703618Y425839D01*
X701146Y424815D01*
X699024Y423186D01*
X697395Y421064D01*
X696372Y418592D01*
X696022Y415940D01*
X696372Y413288D01*
X697395Y410816D01*
X699024Y408694D01*
X701146Y407065D01*
X703618Y406041D01*
X706270Y405692D01*
X708922Y406041D01*
X711394Y407065D01*
X713516Y408694D01*
X715145Y410816D01*
X716169Y413288D01*
X716518Y415940D01*
X716169Y418592D01*
X715145Y421064D01*
X713516Y423186D01*
X711394Y424815D01*
X708922Y425839D01*
X706270Y426188D01*
D02*
G37*
G36*
X535000Y418331D02*
X532248Y417969D01*
X529684Y416907D01*
X527483Y415217D01*
X525793Y413016D01*
X524731Y410452D01*
X524369Y407700D01*
X524731Y404949D01*
X525793Y402385D01*
X527483Y400183D01*
X529684Y398494D01*
X532248Y397431D01*
X535000Y397069D01*
X537751Y397431D01*
X540315Y398494D01*
X542517Y400183D01*
X544207Y402385D01*
X545269Y404949D01*
X545631Y407700D01*
X545269Y410452D01*
X544207Y413016D01*
X542517Y415217D01*
X540315Y416907D01*
X537751Y417969D01*
X535000Y418331D01*
D02*
G37*
G36*
X706270Y400788D02*
X703618Y400438D01*
X701146Y399415D01*
X699024Y397786D01*
X697395Y395664D01*
X696372Y393192D01*
X696022Y390540D01*
X696372Y387888D01*
X697395Y385416D01*
X699024Y383294D01*
X701146Y381665D01*
X703618Y380642D01*
X706270Y380292D01*
X708922Y380642D01*
X711394Y381665D01*
X713516Y383294D01*
X715145Y385416D01*
X716169Y387888D01*
X716518Y390540D01*
X716169Y393192D01*
X715145Y395664D01*
X713516Y397786D01*
X711394Y399415D01*
X708922Y400438D01*
X706270Y400788D01*
D02*
G37*
G36*
X68900Y386101D02*
X60900D01*
X59062Y385858D01*
X57349Y385149D01*
X55879Y384021D01*
X54750Y382550D01*
X54041Y380838D01*
X53799Y379000D01*
X54041Y377162D01*
X54750Y375449D01*
X55879Y373979D01*
X57349Y372850D01*
X59062Y372141D01*
X60900Y371899D01*
X68900D01*
X70738Y372141D01*
X72450Y372850D01*
X73921Y373979D01*
X75049Y375449D01*
X75759Y377162D01*
X76000Y379000D01*
X75759Y380838D01*
X75049Y382550D01*
X73921Y384021D01*
X72450Y385149D01*
X70738Y385858D01*
X68900Y386101D01*
D02*
G37*
G36*
X535000Y392931D02*
X532248Y392569D01*
X529684Y391507D01*
X527483Y389817D01*
X525793Y387616D01*
X524731Y385052D01*
X524369Y382300D01*
X524731Y379549D01*
X525793Y376985D01*
X527483Y374783D01*
X529684Y373094D01*
X532248Y372032D01*
X535000Y371669D01*
X537751Y372032D01*
X540315Y373094D01*
X542517Y374783D01*
X544207Y376985D01*
X545269Y379549D01*
X545631Y382300D01*
X545269Y385052D01*
X544207Y387616D01*
X542517Y389817D01*
X540315Y391507D01*
X537751Y392569D01*
X535000Y392931D01*
D02*
G37*
G36*
X545540Y367440D02*
X536270D01*
Y358170D01*
X545540D01*
Y367440D01*
D02*
G37*
G36*
X533730D02*
X524460D01*
Y358170D01*
X533730D01*
Y367440D01*
D02*
G37*
G36*
X706270Y375388D02*
X703618Y375038D01*
X701146Y374015D01*
X699024Y372386D01*
X697395Y370264D01*
X696372Y367792D01*
X696022Y365140D01*
X696372Y362488D01*
X697395Y360016D01*
X699024Y357894D01*
X701146Y356265D01*
X703618Y355242D01*
X706270Y354892D01*
X708922Y355242D01*
X711394Y356265D01*
X713516Y357894D01*
X715145Y360016D01*
X716169Y362488D01*
X716518Y365140D01*
X716169Y367792D01*
X715145Y370264D01*
X713516Y372386D01*
X711394Y374015D01*
X708922Y375038D01*
X706270Y375388D01*
D02*
G37*
G36*
X545540Y355630D02*
X536270D01*
Y346360D01*
X545540D01*
Y355630D01*
D02*
G37*
G36*
X533730D02*
X524460D01*
Y346360D01*
X533730D01*
Y355630D01*
D02*
G37*
G36*
X706270Y349988D02*
X703618Y349638D01*
X701146Y348615D01*
X699024Y346986D01*
X697395Y344864D01*
X696372Y342392D01*
X696022Y339740D01*
X696372Y337088D01*
X697395Y334616D01*
X699024Y332494D01*
X701146Y330865D01*
X703618Y329841D01*
X706270Y329492D01*
X708922Y329841D01*
X711394Y330865D01*
X713516Y332494D01*
X715145Y334616D01*
X716169Y337088D01*
X716518Y339740D01*
X716169Y342392D01*
X715145Y344864D01*
X713516Y346986D01*
X711394Y348615D01*
X708922Y349638D01*
X706270Y349988D01*
D02*
G37*
G36*
Y324588D02*
X703618Y324239D01*
X701146Y323215D01*
X699024Y321586D01*
X697395Y319464D01*
X696372Y316992D01*
X696022Y314340D01*
X696372Y311688D01*
X697395Y309216D01*
X699024Y307094D01*
X701146Y305465D01*
X703618Y304442D01*
X706270Y304092D01*
X708922Y304442D01*
X711394Y305465D01*
X713516Y307094D01*
X715145Y309216D01*
X716169Y311688D01*
X716518Y314340D01*
X716169Y316992D01*
X715145Y319464D01*
X713516Y321586D01*
X711394Y323215D01*
X708922Y324239D01*
X706270Y324588D01*
D02*
G37*
G36*
X106600Y302429D02*
X103901Y302074D01*
X101385Y301032D01*
X99225Y299375D01*
X97568Y297215D01*
X96526Y294699D01*
X96171Y292000D01*
X96526Y289301D01*
X97568Y286786D01*
X99225Y284626D01*
X101385Y282968D01*
X103901Y281926D01*
X106600Y281571D01*
X109299Y281926D01*
X111815Y282968D01*
X113975Y284626D01*
X115632Y286786D01*
X116674Y289301D01*
X117029Y292000D01*
X116674Y294699D01*
X115632Y297215D01*
X113975Y299375D01*
X111815Y301032D01*
X109299Y302074D01*
X106600Y302429D01*
D02*
G37*
G36*
X81200D02*
X78501Y302074D01*
X75985Y301032D01*
X73825Y299375D01*
X72168Y297215D01*
X71126Y294699D01*
X70771Y292000D01*
X71126Y289301D01*
X72168Y286786D01*
X73825Y284626D01*
X75985Y282968D01*
X78501Y281926D01*
X81200Y281571D01*
X83899Y281926D01*
X86415Y282968D01*
X88574Y284626D01*
X90232Y286786D01*
X91274Y289301D01*
X91629Y292000D01*
X91274Y294699D01*
X90232Y297215D01*
X88574Y299375D01*
X86415Y301032D01*
X83899Y302074D01*
X81200Y302429D01*
D02*
G37*
G36*
X55800D02*
X53101Y302074D01*
X50585Y301032D01*
X48425Y299375D01*
X46768Y297215D01*
X45726Y294699D01*
X45371Y292000D01*
X45726Y289301D01*
X46768Y286786D01*
X48425Y284626D01*
X50585Y282968D01*
X53101Y281926D01*
X55800Y281571D01*
X58499Y281926D01*
X61015Y282968D01*
X63175Y284626D01*
X64832Y286786D01*
X65874Y289301D01*
X66229Y292000D01*
X65874Y294699D01*
X64832Y297215D01*
X63175Y299375D01*
X61015Y301032D01*
X58499Y302074D01*
X55800Y302429D01*
D02*
G37*
G36*
X30400D02*
X27701Y302074D01*
X25185Y301032D01*
X23025Y299375D01*
X21368Y297215D01*
X20326Y294699D01*
X19971Y292000D01*
X20326Y289301D01*
X21368Y286786D01*
X23025Y284626D01*
X25185Y282968D01*
X27701Y281926D01*
X30400Y281571D01*
X33099Y281926D01*
X35615Y282968D01*
X37775Y284626D01*
X39432Y286786D01*
X40474Y289301D01*
X40829Y292000D01*
X40474Y294699D01*
X39432Y297215D01*
X37775Y299375D01*
X35615Y301032D01*
X33099Y302074D01*
X30400Y302429D01*
D02*
G37*
G36*
X706270Y299188D02*
X703618Y298839D01*
X701146Y297815D01*
X699024Y296186D01*
X697395Y294064D01*
X696372Y291592D01*
X696022Y288940D01*
X696372Y286288D01*
X697395Y283816D01*
X699024Y281694D01*
X701146Y280065D01*
X703618Y279042D01*
X706270Y278692D01*
X708922Y279042D01*
X711394Y280065D01*
X713516Y281694D01*
X715145Y283816D01*
X716169Y286288D01*
X716518Y288940D01*
X716169Y291592D01*
X715145Y294064D01*
X713516Y296186D01*
X711394Y297815D01*
X708922Y298839D01*
X706270Y299188D01*
D02*
G37*
G36*
Y273788D02*
X703618Y273438D01*
X701146Y272415D01*
X699024Y270786D01*
X697395Y268664D01*
X696372Y266192D01*
X696022Y263540D01*
X696372Y260888D01*
X697395Y258416D01*
X699024Y256294D01*
X701146Y254665D01*
X703618Y253641D01*
X706270Y253292D01*
X708922Y253641D01*
X711394Y254665D01*
X713516Y256294D01*
X715145Y258416D01*
X716169Y260888D01*
X716518Y263540D01*
X716169Y266192D01*
X715145Y268664D01*
X713516Y270786D01*
X711394Y272415D01*
X708922Y273438D01*
X706270Y273788D01*
D02*
G37*
G36*
X750000Y127625D02*
X745678Y127285D01*
X741463Y126273D01*
X737458Y124614D01*
X733762Y122349D01*
X730466Y119534D01*
X727651Y116238D01*
X725386Y112542D01*
X723727Y108537D01*
X722715Y104322D01*
X722375Y100000D01*
X722715Y95679D01*
X723727Y91463D01*
X725386Y87458D01*
X727651Y83762D01*
X730466Y80466D01*
X733762Y77651D01*
X737458Y75386D01*
X741463Y73727D01*
X745678Y72715D01*
X750000Y72375D01*
X754321Y72715D01*
X758536Y73727D01*
X762541Y75386D01*
X766237Y77651D01*
X769534Y80466D01*
X772349Y83762D01*
X774614Y87458D01*
X776273Y91463D01*
X777285Y95679D01*
X777625Y100000D01*
X777285Y104322D01*
X776273Y108537D01*
X774614Y112542D01*
X772349Y116238D01*
X769534Y119534D01*
X766237Y122349D01*
X762541Y124614D01*
X758536Y126273D01*
X754321Y127285D01*
X750000Y127625D01*
D02*
G37*
G36*
X100000D02*
X95679Y127285D01*
X91463Y126273D01*
X87458Y124614D01*
X83762Y122349D01*
X80466Y119534D01*
X77651Y116238D01*
X75386Y112542D01*
X73727Y108537D01*
X72715Y104322D01*
X72375Y100000D01*
X72715Y95679D01*
X73727Y91463D01*
X75386Y87458D01*
X77651Y83762D01*
X80466Y80466D01*
X83762Y77651D01*
X87458Y75386D01*
X91463Y73727D01*
X95679Y72715D01*
X100000Y72375D01*
X104322Y72715D01*
X108537Y73727D01*
X112542Y75386D01*
X116238Y77651D01*
X119534Y80466D01*
X122349Y83762D01*
X124614Y87458D01*
X126273Y91463D01*
X127285Y95679D01*
X127625Y100000D01*
X127285Y104322D01*
X126273Y108537D01*
X124614Y112542D01*
X122349Y116238D01*
X119534Y119534D01*
X116238Y122349D01*
X112542Y124614D01*
X108537Y126273D01*
X104322Y127285D01*
X100000Y127625D01*
D02*
G37*
G36*
X487600Y48429D02*
X484901Y48074D01*
X482385Y47032D01*
X480225Y45375D01*
X478568Y43215D01*
X477526Y40700D01*
X477171Y38000D01*
X477526Y35301D01*
X478568Y32786D01*
X480225Y30626D01*
X482385Y28968D01*
X484901Y27926D01*
X487600Y27571D01*
X490299Y27926D01*
X492815Y28968D01*
X494975Y30626D01*
X496632Y32786D01*
X497674Y35301D01*
X498029Y38000D01*
X497674Y40700D01*
X496632Y43215D01*
X494975Y45375D01*
X492815Y47032D01*
X490299Y48074D01*
X487600Y48429D01*
D02*
G37*
G36*
X436800D02*
X434101Y48074D01*
X431585Y47032D01*
X429425Y45375D01*
X427768Y43215D01*
X426726Y40700D01*
X426371Y38000D01*
X426726Y35301D01*
X427768Y32786D01*
X429425Y30626D01*
X431585Y28968D01*
X434101Y27926D01*
X436800Y27571D01*
X439499Y27926D01*
X442015Y28968D01*
X444174Y30626D01*
X445832Y32786D01*
X446874Y35301D01*
X447229Y38000D01*
X446874Y40700D01*
X445832Y43215D01*
X444174Y45375D01*
X442015Y47032D01*
X439499Y48074D01*
X436800Y48429D01*
D02*
G37*
G36*
X411400D02*
X408701Y48074D01*
X406185Y47032D01*
X404025Y45375D01*
X402368Y43215D01*
X401326Y40700D01*
X400971Y38000D01*
X401326Y35301D01*
X402368Y32786D01*
X404025Y30626D01*
X406185Y28968D01*
X408701Y27926D01*
X411400Y27571D01*
X414099Y27926D01*
X416615Y28968D01*
X418774Y30626D01*
X420432Y32786D01*
X421474Y35301D01*
X421829Y38000D01*
X421474Y40700D01*
X420432Y43215D01*
X418774Y45375D01*
X416615Y47032D01*
X414099Y48074D01*
X411400Y48429D01*
D02*
G37*
G36*
X386000D02*
X383301Y48074D01*
X380785Y47032D01*
X378625Y45375D01*
X376968Y43215D01*
X375926Y40700D01*
X375571Y38000D01*
X375926Y35301D01*
X376968Y32786D01*
X378625Y30626D01*
X380785Y28968D01*
X383301Y27926D01*
X386000Y27571D01*
X388699Y27926D01*
X391215Y28968D01*
X393374Y30626D01*
X395032Y32786D01*
X396074Y35301D01*
X396429Y38000D01*
X396074Y40700D01*
X395032Y43215D01*
X393374Y45375D01*
X391215Y47032D01*
X388699Y48074D01*
X386000Y48429D01*
D02*
G37*
G36*
X360600D02*
X357901Y48074D01*
X355385Y47032D01*
X353225Y45375D01*
X351568Y43215D01*
X350526Y40700D01*
X350171Y38000D01*
X350526Y35301D01*
X351568Y32786D01*
X353225Y30626D01*
X355385Y28968D01*
X357901Y27926D01*
X360600Y27571D01*
X363299Y27926D01*
X365815Y28968D01*
X367975Y30626D01*
X369632Y32786D01*
X370674Y35301D01*
X371029Y38000D01*
X370674Y40700D01*
X369632Y43215D01*
X367975Y45375D01*
X365815Y47032D01*
X363299Y48074D01*
X360600Y48429D01*
D02*
G37*
G36*
X335200D02*
X332501Y48074D01*
X329985Y47032D01*
X327825Y45375D01*
X326168Y43215D01*
X325126Y40700D01*
X324771Y38000D01*
X325126Y35301D01*
X326168Y32786D01*
X327825Y30626D01*
X329985Y28968D01*
X332501Y27926D01*
X335200Y27571D01*
X337899Y27926D01*
X340415Y28968D01*
X342575Y30626D01*
X344232Y32786D01*
X345274Y35301D01*
X345629Y38000D01*
X345274Y40700D01*
X344232Y43215D01*
X342575Y45375D01*
X340415Y47032D01*
X337899Y48074D01*
X335200Y48429D01*
D02*
G37*
G36*
X309800D02*
X307101Y48074D01*
X304585Y47032D01*
X302425Y45375D01*
X300768Y43215D01*
X299726Y40700D01*
X299371Y38000D01*
X299726Y35301D01*
X300768Y32786D01*
X302425Y30626D01*
X304585Y28968D01*
X307101Y27926D01*
X309800Y27571D01*
X312499Y27926D01*
X315015Y28968D01*
X317174Y30626D01*
X318832Y32786D01*
X319874Y35301D01*
X320229Y38000D01*
X319874Y40700D01*
X318832Y43215D01*
X317174Y45375D01*
X315015Y47032D01*
X312499Y48074D01*
X309800Y48429D01*
D02*
G37*
G36*
X284400D02*
X281701Y48074D01*
X279185Y47032D01*
X277025Y45375D01*
X275368Y43215D01*
X274326Y40700D01*
X273971Y38000D01*
X274326Y35301D01*
X275368Y32786D01*
X277025Y30626D01*
X279185Y28968D01*
X281701Y27926D01*
X284400Y27571D01*
X287099Y27926D01*
X289615Y28968D01*
X291775Y30626D01*
X293432Y32786D01*
X294474Y35301D01*
X294829Y38000D01*
X294474Y40700D01*
X293432Y43215D01*
X291775Y45375D01*
X289615Y47032D01*
X287099Y48074D01*
X284400Y48429D01*
D02*
G37*
G36*
X259000D02*
X256301Y48074D01*
X253785Y47032D01*
X251625Y45375D01*
X249968Y43215D01*
X248926Y40700D01*
X248571Y38000D01*
X248926Y35301D01*
X249968Y32786D01*
X251625Y30626D01*
X253785Y28968D01*
X256301Y27926D01*
X259000Y27571D01*
X261699Y27926D01*
X264215Y28968D01*
X266374Y30626D01*
X268032Y32786D01*
X269074Y35301D01*
X269429Y38000D01*
X269074Y40700D01*
X268032Y43215D01*
X266374Y45375D01*
X264215Y47032D01*
X261699Y48074D01*
X259000Y48429D01*
D02*
G37*
G36*
X233600D02*
X230901Y48074D01*
X228385Y47032D01*
X226225Y45375D01*
X224568Y43215D01*
X223526Y40700D01*
X223171Y38000D01*
X223526Y35301D01*
X224568Y32786D01*
X226225Y30626D01*
X228385Y28968D01*
X230901Y27926D01*
X233600Y27571D01*
X236299Y27926D01*
X238815Y28968D01*
X240975Y30626D01*
X242632Y32786D01*
X243674Y35301D01*
X244029Y38000D01*
X243674Y40700D01*
X242632Y43215D01*
X240975Y45375D01*
X238815Y47032D01*
X236299Y48074D01*
X233600Y48429D01*
D02*
G37*
G36*
X208200D02*
X205501Y48074D01*
X202985Y47032D01*
X200825Y45375D01*
X199168Y43215D01*
X198126Y40700D01*
X197771Y38000D01*
X198126Y35301D01*
X199168Y32786D01*
X200825Y30626D01*
X202985Y28968D01*
X205501Y27926D01*
X208200Y27571D01*
X210899Y27926D01*
X213415Y28968D01*
X215574Y30626D01*
X217232Y32786D01*
X218274Y35301D01*
X218629Y38000D01*
X218274Y40700D01*
X217232Y43215D01*
X215574Y45375D01*
X213415Y47032D01*
X210899Y48074D01*
X208200Y48429D01*
D02*
G37*
G36*
X182800D02*
X180101Y48074D01*
X177585Y47032D01*
X175425Y45375D01*
X173768Y43215D01*
X172726Y40700D01*
X172371Y38000D01*
X172726Y35301D01*
X173768Y32786D01*
X175425Y30626D01*
X177585Y28968D01*
X180101Y27926D01*
X182800Y27571D01*
X185499Y27926D01*
X188015Y28968D01*
X190175Y30626D01*
X191832Y32786D01*
X192874Y35301D01*
X193229Y38000D01*
X192874Y40700D01*
X191832Y43215D01*
X190175Y45375D01*
X188015Y47032D01*
X185499Y48074D01*
X182800Y48429D01*
D02*
G37*
G36*
X157400D02*
X154701Y48074D01*
X152185Y47032D01*
X150025Y45375D01*
X148368Y43215D01*
X147326Y40700D01*
X146971Y38000D01*
X147326Y35301D01*
X148368Y32786D01*
X150025Y30626D01*
X152185Y28968D01*
X154701Y27926D01*
X157400Y27571D01*
X160099Y27926D01*
X162615Y28968D01*
X164774Y30626D01*
X166432Y32786D01*
X167474Y35301D01*
X167829Y38000D01*
X167474Y40700D01*
X166432Y43215D01*
X164774Y45375D01*
X162615Y47032D01*
X160099Y48074D01*
X157400Y48429D01*
D02*
G37*
G36*
X132000D02*
X129301Y48074D01*
X126785Y47032D01*
X124625Y45375D01*
X122968Y43215D01*
X121926Y40700D01*
X121571Y38000D01*
X121926Y35301D01*
X122968Y32786D01*
X124625Y30626D01*
X126785Y28968D01*
X129301Y27926D01*
X132000Y27571D01*
X134699Y27926D01*
X137215Y28968D01*
X139375Y30626D01*
X141032Y32786D01*
X142074Y35301D01*
X142429Y38000D01*
X142074Y40700D01*
X141032Y43215D01*
X139375Y45375D01*
X137215Y47032D01*
X134699Y48074D01*
X132000Y48429D01*
D02*
G37*
G36*
X106600D02*
X103901Y48074D01*
X101385Y47032D01*
X99225Y45375D01*
X97568Y43215D01*
X96526Y40700D01*
X96171Y38000D01*
X96526Y35301D01*
X97568Y32786D01*
X99225Y30626D01*
X101385Y28968D01*
X103901Y27926D01*
X106600Y27571D01*
X109299Y27926D01*
X111815Y28968D01*
X113975Y30626D01*
X115632Y32786D01*
X116674Y35301D01*
X117029Y38000D01*
X116674Y40700D01*
X115632Y43215D01*
X113975Y45375D01*
X111815Y47032D01*
X109299Y48074D01*
X106600Y48429D01*
D02*
G37*
G36*
X81200D02*
X78501Y48074D01*
X75985Y47032D01*
X73825Y45375D01*
X72168Y43215D01*
X71126Y40700D01*
X70771Y38000D01*
X71126Y35301D01*
X72168Y32786D01*
X73825Y30626D01*
X75985Y28968D01*
X78501Y27926D01*
X81200Y27571D01*
X83899Y27926D01*
X86415Y28968D01*
X88574Y30626D01*
X90232Y32786D01*
X91274Y35301D01*
X91629Y38000D01*
X91274Y40700D01*
X90232Y43215D01*
X88574Y45375D01*
X86415Y47032D01*
X83899Y48074D01*
X81200Y48429D01*
D02*
G37*
G36*
X55800D02*
X53101Y48074D01*
X50585Y47032D01*
X48425Y45375D01*
X46768Y43215D01*
X45726Y40700D01*
X45371Y38000D01*
X45726Y35301D01*
X46768Y32786D01*
X48425Y30626D01*
X50585Y28968D01*
X53101Y27926D01*
X55800Y27571D01*
X58499Y27926D01*
X61015Y28968D01*
X63175Y30626D01*
X64832Y32786D01*
X65874Y35301D01*
X66229Y38000D01*
X65874Y40700D01*
X64832Y43215D01*
X63175Y45375D01*
X61015Y47032D01*
X58499Y48074D01*
X55800Y48429D01*
D02*
G37*
G36*
X30400D02*
X27701Y48074D01*
X25185Y47032D01*
X23025Y45375D01*
X21368Y43215D01*
X20326Y40700D01*
X19971Y38000D01*
X20326Y35301D01*
X21368Y32786D01*
X23025Y30626D01*
X25185Y28968D01*
X27701Y27926D01*
X30400Y27571D01*
X33099Y27926D01*
X35615Y28968D01*
X37775Y30626D01*
X39432Y32786D01*
X40474Y35301D01*
X40829Y38000D01*
X40474Y40700D01*
X39432Y43215D01*
X37775Y45375D01*
X35615Y47032D01*
X33099Y48074D01*
X30400Y48429D01*
D02*
G37*
G36*
X1160000Y52648D02*
X1156726Y52217D01*
X1153676Y50954D01*
X1151056Y48944D01*
X1149046Y46324D01*
X1147783Y43274D01*
X1147352Y40000D01*
X1147783Y36727D01*
X1149046Y33676D01*
X1151056Y31056D01*
X1153676Y29046D01*
X1156726Y27783D01*
X1160000Y27352D01*
X1163274Y27783D01*
X1166324Y29046D01*
X1168944Y31056D01*
X1170954Y33676D01*
X1172217Y36727D01*
X1172648Y40000D01*
X1172217Y43274D01*
X1170954Y46324D01*
X1168944Y48944D01*
X1166324Y50954D01*
X1163274Y52217D01*
X1160000Y52648D01*
D02*
G37*
G36*
X831270D02*
X827997Y52217D01*
X824946Y50954D01*
X822327Y48944D01*
X820316Y46324D01*
X819053Y43274D01*
X818622Y40000D01*
X819053Y36727D01*
X820316Y33676D01*
X822327Y31056D01*
X824946Y29046D01*
X827997Y27783D01*
X831270Y27352D01*
X834544Y27783D01*
X837594Y29046D01*
X840214Y31056D01*
X842224Y33676D01*
X843487Y36727D01*
X843918Y40000D01*
X843487Y43274D01*
X842224Y46324D01*
X840214Y48944D01*
X837594Y50954D01*
X834544Y52217D01*
X831270Y52648D01*
D02*
G37*
%LPD*%
G36*
X87650Y459351D02*
X89362Y458641D01*
X91200Y458399D01*
X91869D01*
X92255Y457129D01*
X90825Y456174D01*
X89546Y454259D01*
X89096Y452000D01*
X89546Y449741D01*
X90190Y448777D01*
X90782Y447750D01*
X90190Y446723D01*
X89546Y445759D01*
X89096Y443500D01*
X89546Y441241D01*
X90190Y440277D01*
X90782Y439250D01*
X90190Y438223D01*
X89546Y437259D01*
X89096Y435000D01*
X89546Y432741D01*
X90190Y431777D01*
X90782Y430750D01*
X90190Y429723D01*
X89546Y428759D01*
X89096Y426500D01*
X89546Y424241D01*
X90190Y423277D01*
X90782Y422250D01*
X90190Y421223D01*
X89546Y420259D01*
X89096Y418000D01*
X89546Y415741D01*
X90190Y414777D01*
X90782Y413750D01*
X90190Y412723D01*
X89546Y411759D01*
X89096Y409500D01*
X89546Y407241D01*
X90190Y406277D01*
X90782Y405250D01*
X90190Y404223D01*
X89546Y403259D01*
X89096Y401000D01*
X89546Y398741D01*
X90190Y397777D01*
X90782Y396750D01*
X90190Y395723D01*
X89546Y394759D01*
X89096Y392500D01*
X89546Y390241D01*
X90825Y388326D01*
X92255Y387370D01*
X91869Y386101D01*
X91200D01*
X89362Y385858D01*
X87650Y385149D01*
X87336Y384908D01*
X86197Y385470D01*
Y459030D01*
X87336Y459591D01*
X87650Y459351D01*
D02*
G37*
G36*
X166859Y363029D02*
X168120Y362187D01*
X169606Y361891D01*
X445701D01*
X558609Y248983D01*
X559869Y248141D01*
X561356Y247845D01*
X676474D01*
X676905Y246575D01*
X675666Y245624D01*
X674241Y243767D01*
X673993Y243169D01*
X465725D01*
X420923Y287971D01*
X421474Y289301D01*
X421829Y292000D01*
X421474Y294699D01*
X420432Y297215D01*
X418774Y299375D01*
X416746Y300931D01*
X416759Y301378D01*
X417105Y302201D01*
X421105D01*
X427277Y296029D01*
X426726Y294699D01*
X426371Y292000D01*
X426726Y289301D01*
X427768Y286786D01*
X429425Y284626D01*
X431585Y282968D01*
X434101Y281926D01*
X436800Y281571D01*
X439499Y281926D01*
X442015Y282968D01*
X444174Y284626D01*
X445832Y286786D01*
X446874Y289301D01*
X447229Y292000D01*
X446874Y294699D01*
X445832Y297215D01*
X444174Y299375D01*
X442015Y301032D01*
X439499Y302074D01*
X436800Y302429D01*
X434101Y302074D01*
X432771Y301523D01*
X425461Y308833D01*
X424201Y309675D01*
X422714Y309971D01*
X303800D01*
X302313Y309675D01*
X301053Y308833D01*
X295211Y302991D01*
X294369Y301731D01*
X294073Y300244D01*
Y298465D01*
X292803Y298034D01*
X291775Y299375D01*
X289615Y301032D01*
X287099Y302074D01*
X284400Y302429D01*
X281701Y302074D01*
X279185Y301032D01*
X277025Y299375D01*
X276882Y299188D01*
X275525Y299505D01*
X275385Y300207D01*
X274543Y301467D01*
X269463Y306547D01*
X268203Y307389D01*
X266716Y307685D01*
X130149D01*
X86197Y351637D01*
Y372530D01*
X87336Y373091D01*
X87650Y372850D01*
X89362Y372141D01*
X91200Y371899D01*
X106200D01*
X108038Y372141D01*
X109750Y372850D01*
X111221Y373979D01*
X112350Y375449D01*
X113059Y377162D01*
X113301Y379000D01*
X113059Y380838D01*
X112350Y382550D01*
X111221Y384021D01*
X109750Y385149D01*
X109096Y385420D01*
X109226Y386741D01*
X110759Y387046D01*
X112674Y388326D01*
X113954Y390241D01*
X114403Y392500D01*
X113954Y394759D01*
X113310Y395723D01*
X113233Y395856D01*
X113907Y397116D01*
X132773D01*
X166859Y363029D01*
D02*
G37*
G36*
X406040Y301378D02*
X406054Y300931D01*
X404025Y299375D01*
X402368Y297215D01*
X401326Y294699D01*
X400971Y292000D01*
X401326Y289301D01*
X402368Y286786D01*
X404025Y284626D01*
X406185Y282968D01*
X408701Y281926D01*
X411400Y281571D01*
X414099Y281926D01*
X415429Y282477D01*
X461369Y236537D01*
X462630Y235695D01*
X464116Y235399D01*
X673993D01*
X674241Y234801D01*
X675666Y232944D01*
X677236Y231739D01*
X676908Y230469D01*
X376825D01*
X319323Y287971D01*
X319874Y289301D01*
X320229Y292000D01*
X319874Y294699D01*
X318832Y297215D01*
X317174Y299375D01*
X315146Y300931D01*
X315159Y301378D01*
X315505Y302201D01*
X329495D01*
X329841Y301378D01*
X329854Y300931D01*
X327825Y299375D01*
X326168Y297215D01*
X325126Y294699D01*
X324771Y292000D01*
X325126Y289301D01*
X326168Y286786D01*
X327825Y284626D01*
X329985Y282968D01*
X332501Y281926D01*
X335200Y281571D01*
X337899Y281926D01*
X340415Y282968D01*
X342575Y284626D01*
X344232Y286786D01*
X345274Y289301D01*
X345629Y292000D01*
X345274Y294699D01*
X344232Y297215D01*
X342575Y299375D01*
X340546Y300931D01*
X340560Y301378D01*
X340905Y302201D01*
X354895D01*
X355241Y301378D01*
X355254Y300931D01*
X353225Y299375D01*
X351568Y297215D01*
X350526Y294699D01*
X350171Y292000D01*
X350526Y289301D01*
X351568Y286786D01*
X353225Y284626D01*
X355385Y282968D01*
X357901Y281926D01*
X360600Y281571D01*
X363299Y281926D01*
X365815Y282968D01*
X367975Y284626D01*
X369632Y286786D01*
X370674Y289301D01*
X371029Y292000D01*
X370674Y294699D01*
X369632Y297215D01*
X367975Y299375D01*
X365946Y300931D01*
X365960Y301378D01*
X366305Y302201D01*
X380295D01*
X380640Y301378D01*
X380654Y300931D01*
X378625Y299375D01*
X376968Y297215D01*
X375926Y294699D01*
X375571Y292000D01*
X375926Y289301D01*
X376968Y286786D01*
X378625Y284626D01*
X380785Y282968D01*
X383301Y281926D01*
X386000Y281571D01*
X388699Y281926D01*
X391215Y282968D01*
X393374Y284626D01*
X395032Y286786D01*
X396074Y289301D01*
X396429Y292000D01*
X396074Y294699D01*
X395032Y297215D01*
X393374Y299375D01*
X391346Y300931D01*
X391359Y301378D01*
X391705Y302201D01*
X405695D01*
X406040Y301378D01*
D02*
G37*
%LPC*%
G36*
X497940Y302340D02*
X488870D01*
Y293270D01*
X497940D01*
Y302340D01*
D02*
G37*
G36*
X486330D02*
X477260D01*
Y293270D01*
X486330D01*
Y302340D01*
D02*
G37*
G36*
X497940Y290730D02*
X488870D01*
Y281660D01*
X497940D01*
Y290730D01*
D02*
G37*
G36*
X486330D02*
X477260D01*
Y281660D01*
X486330D01*
Y290730D01*
D02*
G37*
G36*
X462200Y302429D02*
X459501Y302074D01*
X456985Y301032D01*
X454825Y299375D01*
X453168Y297215D01*
X452126Y294699D01*
X451771Y292000D01*
X452126Y289301D01*
X453168Y286786D01*
X454825Y284626D01*
X456985Y282968D01*
X459501Y281926D01*
X462200Y281571D01*
X464899Y281926D01*
X467415Y282968D01*
X469575Y284626D01*
X471232Y286786D01*
X472274Y289301D01*
X472629Y292000D01*
X472274Y294699D01*
X471232Y297215D01*
X469575Y299375D01*
X467415Y301032D01*
X464899Y302074D01*
X462200Y302429D01*
D02*
G37*
%LPD*%
D15*
X432500Y927500D02*
X440250D01*
X375250D02*
X440250D01*
X692680Y251730D02*
X706270Y238140D01*
X561356Y251730D02*
X692680D01*
X447310Y365776D02*
X561356Y251730D01*
X400000Y410000D02*
X447310Y365776D01*
X956964Y718836D02*
X965000Y710800D01*
X293640Y718836D02*
X956964D01*
X274540Y699736D02*
X293640Y718836D01*
X411400Y292000D02*
X464116Y239284D01*
X682006D01*
X95000Y401000D02*
X108500D01*
X95000Y443500D02*
X108500D01*
Y401000D02*
X134382D01*
X169606Y365776D01*
X447310D01*
X309800Y292000D02*
X375216Y226584D01*
X717820D01*
X744490Y253254D01*
Y582946D01*
X796144Y634600D01*
X965000D01*
X303800Y705120D02*
X919880D01*
X965000Y660000D01*
X297704Y628920D02*
X315992Y647208D01*
X969788D01*
X976900Y654320D01*
Y673500D01*
X965000Y685400D02*
X976900Y673500D01*
X779400Y736200D02*
X965000D01*
X260400Y410000D02*
X324000D01*
X422714Y306086D02*
X436800Y292000D01*
X303800Y306086D02*
X422714D01*
X297958Y300244D02*
X303800Y306086D01*
X297958Y280432D02*
Y300244D01*
Y280432D02*
X367808Y210582D01*
X794528D01*
X998236Y414290D01*
Y622596D01*
X1057820Y682180D01*
X1125000D01*
X1057820Y840000D02*
X1125000D01*
X82312Y510312D02*
X119600Y547600D01*
X82312Y350028D02*
Y510312D01*
Y350028D02*
X128540Y303800D01*
X266716D01*
X271796Y298720D01*
Y228404D02*
Y298720D01*
Y228404D02*
X462200Y38000D01*
D19*
X367500Y927500D02*
D03*
X432500D02*
D03*
X367500Y972500D02*
D03*
D20*
X432500D02*
D03*
D30*
X95000Y452000D02*
D03*
Y443500D02*
D03*
Y435000D02*
D03*
Y426500D02*
D03*
Y418000D02*
D03*
Y409500D02*
D03*
Y401000D02*
D03*
Y392500D02*
D03*
X108500D02*
D03*
Y401000D02*
D03*
Y409500D02*
D03*
Y418000D02*
D03*
Y426500D02*
D03*
Y435000D02*
D03*
Y443500D02*
D03*
Y452000D02*
D03*
D31*
X98700Y379000D02*
D03*
Y465500D02*
D03*
D32*
X64900Y379000D02*
D03*
Y465500D02*
D03*
D37*
X487600Y292000D02*
D03*
D38*
X462200D02*
D03*
X30400D02*
D03*
X436800D02*
D03*
X411400D02*
D03*
X386000D02*
D03*
X360600D02*
D03*
X335200D02*
D03*
X309800D02*
D03*
X284400D02*
D03*
X259000D02*
D03*
X233600D02*
D03*
X208200D02*
D03*
X182800D02*
D03*
X157400D02*
D03*
X132000D02*
D03*
X106600D02*
D03*
X81200D02*
D03*
X55800D02*
D03*
X487600Y38000D02*
D03*
X462200D02*
D03*
X436800D02*
D03*
X411400D02*
D03*
X386000D02*
D03*
X360600D02*
D03*
X335200D02*
D03*
X309800D02*
D03*
X284400D02*
D03*
X259000D02*
D03*
X233600D02*
D03*
X208200D02*
D03*
X182800D02*
D03*
X157400D02*
D03*
X132000D02*
D03*
X106600D02*
D03*
X81200D02*
D03*
X55800D02*
D03*
X30400D02*
D03*
D39*
X730000Y965000D02*
D03*
X755000D02*
D03*
X780000D02*
D03*
D40*
X260400Y410000D02*
D03*
X247700D02*
D03*
D41*
X235000D02*
D03*
D42*
X1057820Y615000D02*
D03*
X1125000D02*
D03*
X1057820Y682180D02*
D03*
X1125000D02*
D03*
X1091410Y601090D02*
D03*
Y696090D02*
D03*
X1125000Y907180D02*
D03*
X1057820D02*
D03*
X1125000Y840000D02*
D03*
X1057820D02*
D03*
X1091410Y921090D02*
D03*
Y826090D02*
D03*
D43*
X950000Y950000D02*
D03*
X100000D02*
D03*
X750000Y100000D02*
D03*
X100000D02*
D03*
D44*
X94200Y852400D02*
D03*
X119600D02*
D03*
X145000D02*
D03*
X170400D02*
D03*
X195800Y547600D02*
D03*
X170400D02*
D03*
X145000D02*
D03*
X119600D02*
D03*
X324000Y410000D02*
D03*
X400000D02*
D03*
X706270Y415940D02*
D03*
Y390540D02*
D03*
Y365140D02*
D03*
Y339740D02*
D03*
Y314340D02*
D03*
Y288940D02*
D03*
Y263540D02*
D03*
Y238140D02*
D03*
D45*
X94200Y547600D02*
D03*
D46*
X1160000Y40000D02*
D03*
Y490000D02*
D03*
X831270Y40000D02*
D03*
X830000Y490000D02*
D03*
D47*
X535000Y433100D02*
D03*
Y407700D02*
D03*
Y382300D02*
D03*
X965000Y787000D02*
D03*
Y761600D02*
D03*
Y710800D02*
D03*
Y660000D02*
D03*
Y634600D02*
D03*
Y685400D02*
D03*
Y736200D02*
D03*
D48*
X535000Y356900D02*
D03*
X965000Y609200D02*
D03*
D49*
X274540Y699736D02*
D03*
X682006Y239284D02*
D03*
X303800Y705120D02*
D03*
X297704Y628920D02*
D03*
X779400Y736200D02*
D03*
M02*
