G04*
G04 #@! TF.GenerationSoftware,Altium Limited,Altium Designer,21.1.1 (26)*
G04*
G04 Layer_Color=8388736*
%FSLAX44Y44*%
%MOMM*%
G71*
G04*
G04 #@! TF.SameCoordinates,318D8A57-BE55-4DA7-855F-93B026641E73*
G04*
G04*
G04 #@! TF.FilePolarity,Negative*
G04*
G01*
G75*
%ADD17R,1.5000X1.0000*%
%ADD18R,1.0000X1.5000*%
%ADD19C,1.5400*%
%ADD20R,1.5400X1.5400*%
%ADD21R,1.7632X1.7632*%
%ADD22C,1.7632*%
%ADD23C,1.6032*%
%ADD24C,1.2532*%
%ADD25R,1.2532X1.2532*%
%ADD26C,1.7032*%
%ADD27C,5.2032*%
%ADD28C,1.7272*%
%ADD29R,1.7272X1.7272*%
%ADD30C,0.6500*%
G04:AMPARAMS|DCode=31|XSize=0.9mm|YSize=2.4mm|CornerRadius=0.45mm|HoleSize=0mm|Usage=FLASHONLY|Rotation=270.000|XOffset=0mm|YOffset=0mm|HoleType=Round|Shape=RoundedRectangle|*
%AMROUNDEDRECTD31*
21,1,0.9000,1.5000,0,0,270.0*
21,1,0.0000,2.4000,0,0,270.0*
1,1,0.9000,-0.7500,0.0000*
1,1,0.9000,-0.7500,0.0000*
1,1,0.9000,0.7500,0.0000*
1,1,0.9000,0.7500,0.0000*
%
%ADD31ROUNDEDRECTD31*%
G04:AMPARAMS|DCode=32|XSize=0.9mm|YSize=1.7mm|CornerRadius=0.45mm|HoleSize=0mm|Usage=FLASHONLY|Rotation=270.000|XOffset=0mm|YOffset=0mm|HoleType=Round|Shape=RoundedRectangle|*
%AMROUNDEDRECTD32*
21,1,0.9000,0.8000,0,0,270.0*
21,1,0.0000,1.7000,0,0,270.0*
1,1,0.9000,-0.4000,0.0000*
1,1,0.9000,-0.4000,0.0000*
1,1,0.9000,0.4000,0.0000*
1,1,0.9000,0.4000,0.0000*
%
%ADD32ROUNDEDRECTD32*%
%ADD33C,2.2032*%
%ADD34C,1.8032*%
%ADD35R,1.8032X1.8032*%
%ADD36C,1.4732*%
D17*
X250000Y371000D02*
D03*
Y339000D02*
D03*
D18*
X1066000Y760000D02*
D03*
X1034000D02*
D03*
X1115000D02*
D03*
X1147000D02*
D03*
X646000Y365000D02*
D03*
X614000D02*
D03*
X647000Y285000D02*
D03*
X615000D02*
D03*
D19*
X367500Y927500D02*
D03*
X432500D02*
D03*
X367500Y972500D02*
D03*
D20*
X432500D02*
D03*
D21*
X487600Y292000D02*
D03*
D22*
X462200D02*
D03*
X30400D02*
D03*
X436800D02*
D03*
X411400D02*
D03*
X386000D02*
D03*
X360600D02*
D03*
X335200D02*
D03*
X309800D02*
D03*
X284400D02*
D03*
X259000D02*
D03*
X233600D02*
D03*
X208200D02*
D03*
X182800D02*
D03*
X157400D02*
D03*
X132000D02*
D03*
X106600D02*
D03*
X81200D02*
D03*
X55800D02*
D03*
X487600Y38000D02*
D03*
X462200D02*
D03*
X436800D02*
D03*
X411400D02*
D03*
X386000D02*
D03*
X360600D02*
D03*
X335200D02*
D03*
X309800D02*
D03*
X284400D02*
D03*
X259000D02*
D03*
X233600D02*
D03*
X208200D02*
D03*
X182800D02*
D03*
X157400D02*
D03*
X132000D02*
D03*
X106600D02*
D03*
X81200D02*
D03*
X55800D02*
D03*
X30400D02*
D03*
D23*
X730000Y965000D02*
D03*
X755000D02*
D03*
X780000D02*
D03*
D24*
X260400Y410000D02*
D03*
X247700D02*
D03*
D25*
X235000D02*
D03*
D26*
X1057820Y615000D02*
D03*
X1125000D02*
D03*
X1057820Y682180D02*
D03*
X1125000D02*
D03*
X1091410Y601090D02*
D03*
Y696090D02*
D03*
X1125000Y907180D02*
D03*
X1057820D02*
D03*
X1125000Y840000D02*
D03*
X1057820D02*
D03*
X1091410Y921090D02*
D03*
Y826090D02*
D03*
D27*
X950000Y950000D02*
D03*
X100000D02*
D03*
X750000Y100000D02*
D03*
X100000D02*
D03*
D28*
X94200Y852400D02*
D03*
X119600D02*
D03*
X145000D02*
D03*
X170400D02*
D03*
X195800Y547600D02*
D03*
X170400D02*
D03*
X145000D02*
D03*
X119600D02*
D03*
X324000Y410000D02*
D03*
X400000D02*
D03*
X706270Y415940D02*
D03*
Y390540D02*
D03*
Y365140D02*
D03*
Y339740D02*
D03*
Y314340D02*
D03*
Y288940D02*
D03*
Y263540D02*
D03*
Y238140D02*
D03*
D29*
X94200Y547600D02*
D03*
D30*
X95000Y452000D02*
D03*
Y443500D02*
D03*
Y435000D02*
D03*
Y426500D02*
D03*
Y418000D02*
D03*
Y409500D02*
D03*
Y401000D02*
D03*
Y392500D02*
D03*
X108500D02*
D03*
Y401000D02*
D03*
Y409500D02*
D03*
Y418000D02*
D03*
Y426500D02*
D03*
Y435000D02*
D03*
Y443500D02*
D03*
Y452000D02*
D03*
D31*
X98700Y379000D02*
D03*
Y465500D02*
D03*
D32*
X64900Y379000D02*
D03*
Y465500D02*
D03*
D33*
X1160000Y40000D02*
D03*
Y490000D02*
D03*
X831270Y40000D02*
D03*
X830000Y490000D02*
D03*
D34*
X535000Y433100D02*
D03*
Y407700D02*
D03*
Y382300D02*
D03*
X965000Y787000D02*
D03*
Y761600D02*
D03*
Y710800D02*
D03*
Y660000D02*
D03*
Y634600D02*
D03*
Y685400D02*
D03*
Y736200D02*
D03*
D35*
X535000Y356900D02*
D03*
X965000Y609200D02*
D03*
D36*
X274540Y699736D02*
D03*
X682006Y239284D02*
D03*
X303800Y705120D02*
D03*
X297704Y628920D02*
D03*
X779400Y736200D02*
D03*
M02*
