M48
;Layer_Color=9474304
;FILE_FORMAT=4:4
METRIC,LZ
;TYPE=PLATED
T1F00S00C0.4000
T3F00S00C0.7112
T4F00S00C0.7620
T5F00S00C0.8000
T6F00S00C0.9000
T7F00S00C1.0000
T8F00S00C1.0160
T9F00S00C1.0400
T10F00S00C1.1000
T11F00S00C2.0000
T12F00S00C4.0000
%
T01
X00095Y003925
Y00401
Y004095
Y00418
Y004265
Y00435
Y004435
Y00452
X001085
Y004435
Y00435
Y004265
Y00418
Y004095
Y00401
Y003925
T03
X001704Y00082108
X0062638Y00306848
X00239792Y00318532
X0029872Y00710962
X0054893Y0058193
T04
X0070627Y0023814
Y0026354
Y0028894
Y0031434
Y0033974
Y0036514
Y0039054
Y0041594
X004Y0041
X00324
T05
X00235Y0041
X002477
X002604
T06
X0073Y00965
X00755
X0078
T07
X0105782Y00615
X0109141Y0060109
X01125Y00615
Y0068218
X0109141Y0069609
X0105782Y0068218
Y0084
X0109141Y0082609
X01125Y0084
Y0090718
X0109141Y0092109
X0105782Y0090718
T08
X000942Y005476
X001196
Y008524
X000942
X00145
X001704
Y005476
X001958
X00145
T09
X000304Y00038
X000558
X000812
X001066
X00132
X001574
X001828
X002082
X002336
X00259
X002844
X003098
X003352
X003606
X00386
X004114
X004368
X004622
X004876
Y00292
X004622
X004368
X004114
X00386
X003606
X003352
X003098
X002844
X00259
X002336
X002082
X001828
X001574
X00132
X001066
X000812
X000558
X000304
T10
X00535Y003569
Y003823
Y004077
Y004331
X00965Y006092
Y006346
Y0066
Y006854
Y007108
Y007362
Y007616
Y00787
T11
X0083127Y0004
X0116
Y0049
X0083
T12
X001Y001
X0075
X0095Y0095
X001
M30
